<?xml version="1.0" encoding="UTF-8" standalone="no"?>
<!-- Created with Inkscape (http://www.inkscape.org/) -->

<svg
   xmlns:dc="http://purl.org/dc/elements/1.1/"
   xmlns:cc="http://creativecommons.org/ns#"
   xmlns:rdf="http://www.w3.org/1999/02/22-rdf-syntax-ns#"
   xmlns:svg="http://www.w3.org/2000/svg"
   xmlns="http://www.w3.org/2000/svg"
   xmlns:sodipodi="http://sodipodi.sourceforge.net/DTD/sodipodi-0.dtd"
   xmlns:inkscape="http://www.inkscape.org/namespaces/inkscape"
   id="svg3336"
   version="1.1"
   inkscape:version="0.91 r13725"
   width="780.3468"
   height="620.89594"
   viewBox="0 0 780.3468 620.89594"
   sodipodi:docname="temp_file_white.svg">
  <metadata
     id="metadata3342">
    <rdf:RDF>
      <cc:Work
         rdf:about="">
        <dc:format>image/svg+xml</dc:format>
        <dc:type
           rdf:resource="http://purl.org/dc/dcmitype/StillImage" />
        <dc:title></dc:title>
      </cc:Work>
    </rdf:RDF>
  </metadata>
  <defs
     id="defs3340" />
  <sodipodi:namedview
     pagecolor="#1e41ff"
     bordercolor="#666666"
     borderopacity="1"
     objecttolerance="10"
     gridtolerance="10"
     guidetolerance="10"
     inkscape:pageopacity="0"
     inkscape:pageshadow="2"
     inkscape:window-width="1600"
     inkscape:window-height="837"
     id="namedview3338"
     showgrid="false"
     inkscape:zoom="5.9338298"
     inkscape:cx="484.25119"
     inkscape:cy="487.27934"
     inkscape:window-x="-8"
     inkscape:window-y="-8"
     inkscape:window-maximized="1"
     inkscape:current-layer="svg3336" />
  <path
     id="path3346"
     style="fill:#ffffff;fill-opacity:1;fill-rule:evenodd"
     d="m 230.20106,467.71088 c 12.29954,-22.21378 22.02408,-59.21182 25.07448,-95.39842 0.7694,-9.1274 0.88602,-12.27638 0.88542,-23.9064 -4e-4,-9.0559 -0.073,-12.4304 -0.3451,-16.06824 -1.23236,-16.47352 -3.36464,-28.25084 -7.71194,-42.59556 -0.0738,-0.2435 -0.0364,-0.32108 0.111,-0.22998 0.64818,0.4006 4.88792,10.49268 7.00132,16.66566 13.05612,38.13512 15.57976,92.5849 5.93734,128.10308 -1.37776,5.07494 -4.14748,12.53132 -5.10886,13.75352 -0.49036,0.6234 -26.17088,21.35072 -26.5634,21.43992 -0.189,0.043 0.0678,-0.5863 0.71966,-1.76358 z m 406.41042,-8.1175 c -6.73596,-5.44116 -12.69844,-10.28174 -13.25012,-10.75684 -0.84848,-0.73078 -1.14656,-1.18994 -1.9356,-2.98132 -4.39858,-9.98588 -7.60364,-24.78996 -9.00696,-41.60226 -1.06498,-12.7593 -1.06362,-28.27414 0,-42.03214 1.70262,-21.94894 6.02654,-43.00964 12.26602,-59.74462 1.95808,-5.25182 5.19282,-12.67018 5.64708,-12.95096 0.2776,-0.1716 0.30246,-0.28168 -0.67702,3.00144 -4.1282,13.83736 -6.31482,27.58612 -7.17084,45.08752 -0.26284,5.3727 -0.142,21.32328 0.20174,26.66414 2.57632,40.01596 12.25194,78.98138 25.67922,103.41476 0.59016,1.07398 0.893,1.80866 0.74308,1.80294 -0.1392,-0.006 -5.7642,-4.46148 -12.50016,-9.90266 z m -371.82804,-8.12386 c -0.20614,-0.33352 1.09406,-1.777 6.27016,-6.9612 6.29286,-6.30266 11.42772,-10.74052 18.03332,-15.58542 21.93036,-16.08494 48.9795,-26.71542 77.2059,-30.3424 6.82322,-0.87676 17.5379,-1.51282 17.5379,-1.04112 0,0.1136 -0.77158,0.31238 -1.71462,0.44162 -25.64882,3.5155 -48.23942,11.4135 -65.98752,23.07026 -11.18036,7.34314 -20.92334,16.4772 -28.58818,26.80148 -1.04016,1.40108 -2.11348,2.834 -2.38518,3.18426 l -0.49398,0.63686 -9.87576,0 c -6.64236,0 -9.9171,-0.067 -10.00204,-0.20434 z m 328.6328,-0.43252 c -0.27172,-0.35026 -1.34462,-1.78318 -2.38438,-3.18426 -10.27532,-13.84716 -24.2655,-25.48046 -40.64254,-33.79556 -15.34084,-7.789 -33.95784,-13.33818 -53.93402,-16.07618 -0.94302,-0.1292 -1.71458,-0.32798 -1.71458,-0.44162 0,-0.26728 6.49328,-0.0672 11.07138,0.34112 30.6617,2.73486 60.50836,13.8782 84.1623,31.42228 6.85536,5.0846 11.2506,8.89718 17.63994,15.30142 5.08984,5.10174 6.37818,6.53438 6.17366,6.86532 -0.0848,0.1374 -3.35966,0.20434 -10.00202,0.20434 l -9.87578,0 -0.49396,-0.63686 z m -329.90132,-8.86756 c 0,-0.162 0.34636,-1.55086 0.7697,-3.08628 3.92332,-14.22944 6.07232,-27.5261 6.89108,-42.63734 0.44946,-8.29546 0.0814,-22.99138 -0.80546,-32.16748 -2.76398,-28.59522 -11.0839,-59.17102 -24.91374,-91.55826 -1.18474,-2.77448 -2.12546,-5.18818 -2.09048,-5.36374 0.1214,-0.60886 11.1327,-6.1392 18.53942,-9.3112 24.89676,-10.66236 53.76304,-17.60418 86.26162,-20.7444 2.31716,-0.2239 4.34528,-0.46494 4.50694,-0.53564 0.65378,-0.28594 -2.75278,-0.39998 -12.54104,-0.41986 -10.35582,-0.021 -15.0731,0.1106 -23.90642,0.6675 -27.10288,1.70844 -55.72742,6.61422 -74.82836,12.82436 -1.33282,0.43332 -2.57542,0.78786 -2.76132,0.78786 -0.22952,0 -0.41468,-0.26728 -0.57694,-0.8328 -0.74278,-2.58868 -3.24122,-10.13148 -4.81936,-14.5496 -10.80872,-30.25982 -25.12378,-55.93076 -43.98088,-78.87018 -3.8218,-4.64918 -6.86804,-8.06066 -12.13138,-13.586 -2.54874,-2.67558 -4.63406,-4.96824 -4.63406,-5.0948 0,-0.1266 0.26454,-0.25834 0.58786,-0.29286 1.29592,-0.1384 10.38582,-1.86368 13.70688,-2.60168 35.06844,-7.79268 59.95578,-23.66535 76.16648,-48.577533 1.15716,-1.77828 2.22266,-3.39856 2.36776,-3.6006 0.25496,-0.35496 0.3761,-0.33982 3.58776,0.4484 29.39462,7.21418 55.68806,18.439943 79.35406,33.879523 28.121,18.34599 52.92274,43.28485 73.84668,74.25505 2.04064,3.02048 2.65604,4.07336 2.57678,4.40896 -0.0572,0.2425 -0.71814,3.4325 -1.4687,7.08888 -0.75054,3.65636 -1.44172,6.72504 -1.53596,6.81928 -0.0978,0.0978 -1.60168,-1.5357 -3.50452,-3.80662 -33.44926,-39.91946 -71.25098,-67.1706 -117.22234,-84.50519 -4.7691,-1.7983 -15.39538,-5.39862 -15.93394,-5.39862 -0.20912,0 -1.4368,0.83822 -2.72816,1.86268 -16.90984,13.41519 -37.59474,21.06153 -64.63322,23.89221 -6.07012,0.6355 -16.94008,1.28262 -21.59238,1.28548 -1.15222,7.6e-4 -2.14214,0.0776 -2.19982,0.171 -0.0578,0.0934 1.2109,1.24342 2.81906,2.55578 8.19822,6.69026 16.62056,15.04044 23.4393,23.23844 12.61686,15.169 23.05652,32.28262 32.62148,53.47618 l 1.05254,2.33218 3.92576,-0.1272 c 2.15916,-0.07 7.71746,-0.25778 12.35178,-0.41732 29.3259,-1.00964 52.16588,-0.94726 69.36772,0.1896 28.7185,1.89782 51.9212,6.5824 72.41642,14.6208 1.93366,0.7584 3.5158,1.45004 3.5158,1.53696 0,0.087 -2.27062,0.2159 -5.04582,0.28662 -11.42072,0.29102 -20.1249,0.73962 -29.0502,1.49724 -42.24476,3.58586 -77.83568,13.66732 -108.06866,30.61146 -4.43672,2.48656 -6.3685,3.6666 -6.3685,3.89024 0,0.1064 0.33978,0.69574 0.75508,1.30954 1.2622,1.86544 4.67978,7.37802 6.88754,11.10964 16.06996,27.16186 26.57646,54.46818 32.00568,83.18252 0.37698,1.99382 0.7469,4.044 0.82206,4.55592 0.085,0.57864 0.23582,0.93078 0.39884,0.93078 0.42044,0 7.69874,-4.30496 13.41466,-7.93452 26.22064,-16.64984 50.84832,-37.8107 73.09826,-62.80828 5.27642,-5.92808 12.15022,-14.16662 16.7143,-20.03292 0.73374,-0.94302 1.44174,-1.7146 1.57334,-1.7146 0.1568,0 1.31194,4.75262 3.34608,13.76578 1.7088,7.57118 3.1433,13.86802 3.18782,13.993 0.0444,0.125 -0.79974,1.15452 -1.87626,2.28788 -13.3344,14.03922 -23.7369,35.33724 -29.6172,60.63816 -0.93156,4.0086 -2.21416,10.72038 -2.56796,13.43866 -0.1388,1.0669 -0.3731,2.05488 -0.52268,2.20448 -0.149,0.149 -0.5306,0.27106 -0.84778,0.27106 -1.0519,0 -9.80644,1.1734 -14.61074,1.95832 -36.3294,5.93548 -67.7091,19.19684 -94.98662,40.1423 -3.0289,2.32578 -9.79932,7.90936 -10.01634,8.2605 -0.1828,0.29564 -0.4893,0.23326 -0.4893,-0.0996 z m 23.10172,-40.44782 10.21046,-12.23108 0,-1.01376 c 0,-3.05812 -0.8635,-12.94624 -1.58268,-18.12388 -2.57806,-18.5599 -7.7864,-36.13902 -16.3431,-55.16106 -2.2447,-4.9901 -7.83128,-16.00888 -9.64006,-19.0137 -0.1266,-0.21038 -0.26934,-0.33914 -0.3171,-0.28616 -0.0478,0.053 0.5623,2.30084 1.35576,4.9952 5.84932,19.86284 9.02786,38.03988 10.08226,57.65684 0.34048,6.33462 0.1314,21.0711 -0.38572,27.19128 -0.74544,8.82192 -1.65462,15.60366 -3.16484,23.60736 -0.82364,4.36506 -0.87674,4.77838 -0.60054,4.67534 0.0962,-0.036 4.7698,-5.56928 10.38556,-12.29638 z m 3.84194,9.4686 c 27.12658,-15.12592 55.32404,-24.07494 82.98656,-26.33748 4.25068,-0.34766 4.29798,-0.35672 4.39434,-0.84392 0.0466,-0.23596 0.3627,-2.1485 0.70232,-4.25012 1.18458,-7.33028 2.92166,-14.32358 5.37848,-21.65292 1.98784,-5.93034 4.97278,-13.20736 7.3454,-17.90748 0.34602,-0.6855 0.55628,-1.31596 0.46722,-1.40098 -0.0892,-0.085 -3.23518,-0.0342 -6.99134,0.1126 -5.55292,0.2173 -6.91716,0.3248 -7.2993,0.57518 -0.25846,0.1694 -0.46994,0.38754 -0.46994,0.48486 0,0.2515 -7.6086,7.45454 -10.87546,10.29576 -13.11634,11.40744 -30.08176,22.81402 -54.94098,36.93916 l -6.72488,3.8211 -8.11192,10.48354 c -4.46156,5.76596 -8.11238,10.54968 -8.11294,10.63052 -0.002,0.26898 0.27876,0.1506 2.25244,-0.9499 z m 104.93342,-80.98474 1.27366,-0.1212 0.78386,-1.23742 c 3.97994,-6.28316 9.34586,-13.9465 12.5113,-17.86812 0.3915,-0.48498 0.71016,-1.05814 0.7082,-1.2737 -0.008,-0.68332 -1.87136,-7.41932 -2.07294,-7.48652 -0.1062,-0.0354 -2.04034,2.33516 -4.29808,5.26788 -6.85784,8.9078 -13.83604,17.5906 -17.07682,21.24836 -0.67928,0.76658 -1.23502,1.49968 -1.23502,1.6291 0,0.1798 0.95728,0.20318 4.06606,0.099 2.23634,-0.075 4.63926,-0.1908 5.33978,-0.25742 z m 219.17546,112.06396 c -0.21214,-0.34328 -6.75838,-5.74274 -9.89648,-8.16282 -20.88432,-16.10568 -44.44854,-27.7479 -70.73946,-34.94976 -7.9797,-2.18586 -15.8574,-3.8952 -24.3963,-5.2936 -4.76838,-0.78092 -13.5268,-1.9554 -14.58168,-1.9554 -0.31724,0 -0.69872,-0.122 -0.84782,-0.27106 -0.1496,-0.1496 -0.38382,-1.13758 -0.52266,-2.20448 -0.35384,-2.71828 -1.63638,-9.43006 -2.56804,-13.43866 -5.88768,-25.33288 -16.37764,-46.79084 -29.65418,-60.65974 -1.06116,-1.10844 -1.89156,-2.12294 -1.84552,-2.25444 0.046,-0.1314 1.48226,-6.43368 3.1915,-14.00486 1.76626,-7.82404 3.1991,-13.76578 3.31956,-13.76578 0.1166,0 2.02956,2.27062 4.25114,5.04582 15.83706,19.78398 32.81978,37.41984 50.5251,52.46826 14.84906,12.6208 30.74518,23.87994 47.4793,33.62932 1.27162,0.7408 2.42784,1.34692 2.56954,1.34692 0.17,0 0.33856,-0.51562 0.49614,-1.51864 0.1312,-0.83524 0.71342,-3.89948 1.29378,-6.8094 5.46364,-27.39618 16.00362,-54.33094 31.43876,-80.34118 2.25632,-3.80208 5.67014,-9.3067 6.89008,-11.10964 0.41532,-0.6138 0.75506,-1.20308 0.75506,-1.30954 0,-0.22364 -1.93176,-1.40368 -6.36846,-3.89024 -30.23304,-16.94414 -65.82396,-27.0256 -108.0687,-30.61146 -8.92528,-0.75762 -17.62954,-1.20622 -29.05016,-1.49724 -2.77522,-0.0708 -5.04584,-0.1998 -5.04584,-0.28662 0,-0.087 1.58208,-0.77856 3.5158,-1.53696 20.49508,-8.03832 43.69808,-12.723 72.4164,-14.6208 17.20188,-1.13676 40.04184,-1.19914 69.36774,-0.1896 4.63428,0.1596 10.1926,0.34734 12.35174,0.41732 l 3.92578,0.1272 1.05248,-2.33218 c 14.96378,-33.15864 33.10114,-57.97808 56.06082,-76.71462 1.60822,-1.31236 2.87676,-2.46246 2.81906,-2.55578 -0.058,-0.0934 -1.04758,-0.1702 -2.19982,-0.171 -4.64784,-0.004 -15.50768,-0.6491 -21.59236,-1.28492 -27.3404,-2.85692 -48.07172,-10.59106 -65.18342,-24.31771 -0.98574,-0.79076 -1.96462,-1.43774 -2.17524,-1.43774 -0.54076,0 -11.156,3.59596 -15.93666,5.39862 -28.13078,10.60739 -52.88724,24.76981 -75.80112,43.36351 -14.6012,11.84834 -28.1616,25.31726 -41.4212,41.14168 -1.9903,2.37528 -3.4047,3.90648 -3.51062,3.80052 -0.0976,-0.0976 -0.78836,-3.16628 -1.53498,-6.8193 -0.74664,-3.65302 -1.40476,-6.84026 -1.4626,-7.08276 -0.0802,-0.33628 0.5311,-1.3825 2.5758,-4.40896 11.15312,-16.50808 22.76742,-30.5634 36.15078,-43.74878 23.74,-23.38886 50.11634,-40.60349 81.2351,-53.018433 10.63172,-4.24158 23.76544,-8.41012 35.81488,-11.36736 3.2116,-0.78822 3.33274,-0.80336 3.58774,-0.4484 0.145,0.20204 1.21062,1.82232 2.36774,3.6006 4.18048,6.42448 8.01186,11.1393 13.53984,16.661783 4.0271,4.02312 6.71326,6.3693 10.81712,9.44796 13.8347,10.37848 31.10036,17.86595 51.80954,22.46779 3.32108,0.738 12.41096,2.46332 13.70684,2.60168 0.32334,0.0346 0.5879,0.1642 0.5879,0.28798 0,0.1238 -2.08522,2.41654 -4.63376,5.09482 -5.25556,5.52308 -8.2997,8.93196 -12.13666,13.59086 -18.61362,22.60098 -32.97656,48.2848 -43.7771,78.28234 -1.61998,4.4992 -4.25718,12.42806 -4.9046,14.74554 -0.25304,0.90588 -0.4315,1.2247 -0.6853,1.2247 -0.1888,0 -1.43374,-0.35454 -2.76654,-0.78786 -19.10096,-6.21014 -47.72548,-11.11592 -74.82836,-12.82436 -8.8333,-0.55682 -13.5506,-0.68852 -23.9064,-0.6675 -9.7883,0.02 -13.19488,0.134 -12.54106,0.41986 0.1616,0.0706 2.1898,0.31146 4.5069,0.535 32.42872,3.12868 61.3802,10.08908 86.22826,20.73076 7.37274,3.1575 18.45308,8.71882 18.57248,9.3217 0.0346,0.1756 -0.90648,2.5902 -2.0917,5.3657 -13.97646,32.72906 -22.31218,63.58712 -24.9979,92.53984 -0.7226,7.7894 -0.79906,9.8016 -0.79348,20.86912 0.008,11.6963 0.127,14.2387 1.08186,22.73066 1.12118,9.96968 3.09838,20.12864 5.88278,30.22528 0.42346,1.53542 0.76992,2.92424 0.76992,3.08628 0,0.33256 -0.30654,0.39526 -0.48908,0.1 z m -12.05198,-28.52762 c 0,-0.1698 -0.35536,-2.17188 -0.78972,-4.44894 -1.45462,-7.62582 -2.4164,-14.81194 -3.15302,-23.55758 -0.5131,-6.0915 -0.72546,-21.11666 -0.38616,-27.31546 1.0732,-19.6068 4.24512,-37.70218 10.0849,-57.53266 0.79348,-2.69436 1.40354,-4.9422 1.35578,-4.9952 -0.0474,-0.053 -0.1904,0.0758 -0.31708,0.28616 -1.79656,2.98452 -7.56846,14.37336 -9.73558,19.20966 -10.72266,23.9298 -16.30486,45.95724 -17.6577,69.67754 -0.2065,3.62042 -0.201,4.28568 0.0376,4.6237 0.68884,0.97386 20.28256,24.35246 20.41356,24.3568 0.0808,0.002 0.147,-0.1342 0.147,-0.30402 z m -12.18466,-1.65924 c -0.0376,-0.1124 -3.69662,-4.89618 -8.13142,-10.6305 l -8.06332,-10.42602 -6.7223,-3.8211 c -24.92838,-14.16976 -41.89092,-25.57432 -54.94966,-36.94474 -3.32514,-2.89524 -10.78398,-9.95864 -11.05918,-10.47284 -0.1086,-0.20276 -0.37404,-0.42476 -0.59002,-0.49332 -0.62496,-0.1984 -13.79694,-0.66532 -13.97638,-0.49548 -0.0892,0.0844 0.1212,0.71422 0.46722,1.39972 2.37254,4.70012 5.35756,11.97714 7.34538,17.90748 2.4561,7.32712 4.1807,14.2736 5.37594,21.65292 0.34036,2.10162 0.6573,4.01416 0.7043,4.25012 0.097,0.48716 0.1446,0.4963 4.39488,0.84392 27.68082,2.26402 55.7164,11.1602 82.98658,26.33312 2.01284,1.11992 2.33586,1.25054 2.21798,0.89672 z m -97.74562,-81.7783 c 0,-0.1484 -0.1462,-0.39094 -0.32484,-0.53886 -1.07268,-0.88794 -10.75936,-12.88512 -17.9867,-22.27704 -2.25766,-2.93384 -4.19116,-5.30548 -4.29672,-5.27032 -0.20324,0.0678 -2.07724,6.82036 -2.07784,7.48706 -1.4e-4,0.21556 0.32002,0.78872 0.71152,1.2737 3.1848,3.94562 8.6452,11.70008 11.6202,16.50222 0.78218,1.26254 1.54026,2.39358 1.68468,2.51342 0.155,0.1286 1.7307,0.27958 3.84954,0.3686 6.0226,0.25308 6.82016,0.2462 6.82016,-0.0588 z m -167.9969,24.8132 c -3.05908,-4.87504 -8.85324,-15.62516 -12.22512,-22.68168 -8.12758,-17.00908 -12.5889,-31.3997 -14.3671,-46.34314 -0.50414,-4.23668 -0.78458,-15.09708 -0.40174,-15.55838 0.28874,-0.34792 0.6885,-0.41262 5.60126,-0.90674 29.42956,-2.96002 56.93778,0.77554 82.20274,11.16298 6.90988,2.84092 17.53786,8.10378 17.53786,8.68454 0,0.53564 -11.50462,15.01936 -11.93772,15.02894 -0.2071,0.004 -0.51574,-0.1144 -0.68584,-0.26422 -0.6581,-0.57976 -5.94588,-4.00768 -8.99084,-5.82848 -3.48488,-2.08382 -10.37218,-5.62624 -13.973,-7.18688 -15.1963,-6.58626 -30.59322,-10.0961 -49.1627,-11.20704 -3.97394,-0.23774 -11.3048,-0.25578 -11.44548,-0.0282 -0.1414,0.22862 0.56424,2.40982 2.11304,6.53254 5.36036,14.2686 12.2211,26.44716 21.009,37.29326 0.36944,0.45598 0.69566,0.69098 0.83746,0.60334 0.30774,-0.1902 1.89282,-2.56028 5.52272,-8.2579 4.658,-7.31134 9.33592,-15.13788 15.02142,-25.13202 0.26432,-0.46464 0.60844,-0.89388 0.76472,-0.95384 0.1562,-0.06 1.715,0.38096 3.46382,0.97982 4.98742,1.70792 6.41106,2.28878 6.41106,2.6157 0,0.161 -0.5407,1.58628 -1.20154,3.1671 -4.8713,11.65276 -10.20208,22.21092 -16.48948,32.65924 -3.63208,6.03576 -10.04262,15.39398 -13.81808,20.17192 -2.51156,3.17844 -5.024,6.18392 -5.16948,6.18392 -0.0858,0 -0.36338,-0.33068 -0.61698,-0.73484 z m 226.65718,-1.66264 c -12.7505,-15.5585 -23.743,-34.0532 -32.62248,-54.8868 -0.97218,-2.28102 -1.8144,-4.37994 -1.87166,-4.66422 -0.0982,-0.48874 -0.0204,-0.54914 1.4348,-1.10912 0.8463,-0.32574 3.0562,-1.1072 4.91092,-1.7366 2.98592,-1.01326 3.40446,-1.11068 3.6542,-0.8504 0.1552,0.1616 1.66932,2.71886 3.36484,5.68266 6.19316,10.82548 16.86988,27.98084 17.75406,28.52732 0.24876,0.1538 0.3882,-0.002 3.0703,-3.42614 2.2441,-2.86496 6.89338,-9.86598 9.0568,-13.63786 2.14574,-3.74112 5.58718,-10.66974 7.23278,-14.56162 2.11784,-5.00894 4.80272,-12.47606 4.60242,-12.80012 -0.142,-0.22986 -7.45138,-0.2136 -11.44714,0.0254 -14.9601,0.895 -26.81834,3.1417 -39.6807,7.51796 -9.86702,3.35716 -20.15216,8.46912 -29.39308,14.60912 -1.50886,1.00252 -2.88256,1.94544 -3.05274,2.09534 -0.1702,0.15 -0.47874,0.26938 -0.68584,0.2655 -0.43218,-0.008 -11.9378,-14.49546 -11.9378,-15.03152 0,-0.57944 10.6377,-5.84632 17.53794,-8.68326 25.28672,-10.39638 52.71104,-14.1202 82.20274,-11.16192 4.91016,0.49254 5.31236,0.55758 5.60126,0.90568 0.38286,0.4613 0.1024,11.3217 -0.40174,15.55838 -2.23372,18.77134 -8.9915,37.6034 -21.74644,60.60086 -2.62898,4.74016 -5.17698,9.027 -5.40886,9.10014 -0.1128,0.0356 -1.09128,-1.01692 -2.17458,-2.3388 z m -114.4505,-13.03392 c -9.5953,-14.5202 -15.62372,-29.3391 -18.67336,-45.90224 -2.44398,-13.2742 -2.68858,-23.85186 -0.86536,-37.42724 0.63552,-4.73138 1.81214,-11.40964 2.05268,-11.65018 0.1216,-0.1216 0.59084,-0.0778 1.31404,0.1226 7.03788,1.95154 15.22362,4.14828 16.76418,4.4989 l 1.9226,0.43754 1.89854,-0.44708 c 2.39146,-0.56318 7.89368,-2.02886 13.40792,-3.5716 2.34258,-0.6554 4.3802,-1.14516 4.52808,-1.0884 0.31286,0.12 0.32106,0.1566 1.20632,5.42764 1.56082,9.29382 2.10548,15.14924 2.096,22.53472 -0.008,5.4344 -0.1882,8.63732 -0.74256,13.12892 -2.19092,17.74886 -7.86708,34.28754 -16.88036,49.18448 -2.18316,3.6084 -5.23386,8.03412 -5.53798,8.03412 -0.1992,0 -1.14762,-1.2497 -2.49074,-3.28224 z M 328.249,312.88938 c -0.69124,-0.73926 -2.71272,-3.37514 -4.07322,-5.31118 -2.53688,-3.61012 -5.61368,-9.4848 -7.71208,-14.72512 -1.43432,-3.58192 -3.22548,-9.06998 -3.05188,-9.35086 0.23838,-0.38574 7.54466,0.21182 12.61244,1.03152 3.38618,0.54772 8.21432,1.7512 11.36534,2.833 2.71888,0.93344 6.117,2.434 6.3441,2.80148 0.189,0.30582 -2.22684,5.86482 -3.69994,8.5138 -1.74492,3.13778 -3.13706,5.2742 -5.39526,8.27974 -1.89904,2.52756 -5.37358,6.56446 -5.65,6.56446 -0.0792,0 -0.41198,-0.28658 -0.7395,-0.63684 z m 219.39388,-1.37168 c -3.36402,-3.76206 -6.58234,-8.29898 -9.10526,-12.83568 -1.47306,-2.64898 -3.88894,-8.20798 -3.69992,-8.5138 0.22714,-0.36748 3.62528,-1.86804 6.34414,-2.80148 3.15096,-1.0818 7.97916,-2.28528 11.36532,-2.833 5.0533,-0.81736 12.37406,-1.4172 12.61136,-1.03334 0.1738,0.2814 -1.4165,5.16946 -2.94742,9.05874 -2.11462,5.37218 -5.19138,11.28494 -7.81548,15.01906 -2.2166,3.15432 -4.47706,5.94802 -4.81268,5.94802 -0.0792,0 -0.95222,-0.90384 -1.94006,-2.00852 z M 366.10814,270.0408 c -1.50266,-0.40292 -2.76638,-0.83548 -2.80832,-0.96126 -0.0682,-0.20438 11.22038,-21.8931 11.8258,-22.72106 0.1358,-0.1858 0.29518,-0.28966 0.35402,-0.23082 0.1264,0.1264 -1.51286,8.42118 -2.49578,12.6294 -0.7423,3.17818 -2.49186,9.89944 -2.9074,11.16938 -0.33518,1.02438 -0.5513,1.0306 -3.96832,0.1144 z m 142.63932,0.5651 c -0.2559,-0.41414 -2.13382,-7.45584 -3.15994,-11.84884 -0.93556,-4.00564 -2.62454,-12.50058 -2.50852,-12.61664 0.052,-0.0518 0.1758,-0.012 0.2755,0.0886 0.38472,0.38832 11.98826,22.63708 11.91722,22.85022 -0.07,0.21028 -5.33662,1.70418 -6.06782,1.72122 -0.1822,0.004 -0.38766,-0.0834 -0.45644,-0.1946 z m -70.93142,-25.90458 c -1.42042,-0.36334 -14.07584,-3.84398 -15.6763,-4.3115 -1.28872,-0.37646 -1.5786,-0.53412 -1.62946,-0.88602 -0.0338,-0.23542 0.38316,-2.48094 0.92698,-4.99002 3.62128,-16.70724 5.15108,-24.36746 6.57768,-32.93726 0.463,-2.78122 0.89292,-5.10788 0.95536,-5.1704 0.0626,-0.0626 2.4091,0.30326 5.21452,0.8128 l 5.1009,0.92642 5.10082,-0.92642 c 2.8055,-0.50954 5.15364,-0.8737 5.21806,-0.80928 0.0648,0.0644 0.4929,2.39112 0.95214,5.1704 1.20706,7.30516 1.99528,11.35134 4.63006,23.76686 3.0129,14.19716 3.02676,14.26908 2.80226,14.48012 -0.1932,0.1816 -3.68042,1.20092 -10.3753,3.0328 -8.01096,2.19198 -8.25104,2.23708 -9.79772,1.8415 z m -20.9671,-18.89744 c -0.32326,-0.1712 -1.95462,-1.12638 -3.62514,-2.12278 -20.26462,-12.0872 -41.37718,-22.14662 -71.12792,-33.89 -3.71568,-1.46666 -6.8819,-2.64206 -7.03604,-2.61198 -0.157,0.0306 -0.51266,0.7447 -0.8082,1.62234 -2.38824,7.0917 -7.57638,11.8596 -15.0645,13.84426 -2.18038,0.5779 -7.31552,0.72192 -9.93596,0.2787 -2.38626,-0.40362 -5.94372,-1.57004 -8.1351,-2.66732 -3.30126,-1.65306 -8.31544,-5.28308 -7.29756,-5.28308 0.0698,0 0.92944,0.25676 1.91056,0.57058 2.8024,0.8964 4.70276,1.22734 7.68468,1.33828 11.4253,0.42506 20.42098,-6.64856 22.32256,-17.55304 0.52382,-3.0038 0.28606,-8.33836 -0.49016,-10.99768 -0.1128,-0.38638 -0.1242,-0.75154 -0.0268,-0.84906 0.46608,-0.4661 19.69516,8.78622 28.7283,13.82302 20.9655,11.69012 40.823,25.3592 58.8842,40.5334 3.01952,2.53688 4.95898,4.30726 4.69238,4.28334 -0.0482,-0.004 -0.35196,-0.1478 -0.6753,-0.31898 z m 44.77556,-0.35528 c 0.3772,-0.40042 2.22896,-2.02514 4.11502,-3.61052 18.00062,-15.131 37.92316,-28.84432 58.88416,-40.53196 8.98134,-5.00786 28.26226,-14.2891 28.72436,-13.82698 0.0922,0.0922 0.0452,0.62826 -0.1042,1.19602 -0.90972,3.44848 -0.91928,9.10554 -0.021,12.48408 2.65286,9.97988 11.22166,16.12222 21.93498,15.72364 2.98194,-0.111 4.8823,-0.44188 7.6847,-1.33828 0.98114,-0.31382 1.84084,-0.57058 1.91054,-0.57058 1.0179,0 -3.9963,3.63002 -7.29756,5.28308 -2.19138,1.09728 -5.74884,2.2637 -8.1351,2.66732 -2.6204,0.44322 -7.75558,0.2992 -9.93596,-0.2787 -7.4898,-1.98512 -12.84776,-6.92704 -15.08854,-13.91716 -0.2547,-0.79452 -0.57668,-1.48816 -0.71552,-1.54144 -0.45638,-0.1752 -20.0891,7.71868 -30.81168,12.38854 -17.382,7.57012 -32.55152,15.2687 -46.93102,23.81778 -1.93998,1.15336 -3.83582,2.2514 -4.21302,2.4401 l -0.68584,0.34308 0.68584,-0.72802 z m -206.14832,-4.75104 c -0.1884,-0.1322 -0.39982,-0.46874 -0.46988,-0.74784 -0.07,-0.2791 -0.64096,-1.80224 -1.2687,-3.38478 -5.80354,-14.63064 -14.84586,-29.6433 -29.75998,-49.4094 -1.98942,-2.63662 -3.6665,-4.92254 -3.72686,-5.07984 -0.1718,-0.44748 0.309,-0.1934 3.1499,1.66494 5.88576,3.85008 11.11572,8.04528 22.08648,17.71658 13.79212,12.15852 20.43238,17.07336 28.31536,20.95792 5.74412,2.83056 9.36984,4.1424 21.94684,7.94068 11.5922,3.50086 15.8249,4.9984 20.86162,7.38088 3.03468,1.43548 4.21026,2.11752 3.99506,2.31782 -0.0916,0.0852 -13.74608,0.29908 -30.34338,0.47522 -16.5973,0.1762 -31.137,0.34006 -32.31044,0.36424 -1.4337,0.0296 -2.24588,-0.0348 -2.47602,-0.1964 z m 338.51532,-0.0714 c -37.33136,-0.46456 -35.95222,-0.43898 -35.99396,-0.66794 -0.0512,-0.27974 5.39726,-2.97954 8.43734,-4.18098 3.93,-1.55308 7.61344,-2.77168 16.38722,-5.42136 16.62776,-5.02162 21.54936,-7.07608 29.58902,-12.35152 5.64006,-3.70086 10.79906,-7.82936 20.67316,-16.54384 10.87288,-9.5959 16.19632,-13.86684 22.0865,-17.71982 2.8409,-1.85832 3.3216,-2.11242 3.1499,-1.66494 -0.0602,0.1574 -1.749,2.45754 -3.75258,5.11166 -15.376,20.36882 -25.33064,37.13864 -30.51072,51.39912 -0.56968,1.5682 -1.15984,2.50378 -1.52732,2.42132 -0.0686,-0.016 -12.91124,-0.1872 -28.53856,-0.3817 z M 435.75854,194.08188 c -9.03942,-1.93842 -15.23748,-10.44796 -14.13634,-19.40828 0.9508,-7.73656 6.43182,-13.8119 13.9691,-15.48374 1.89456,-0.42024 5.49354,-0.4204 7.3872,-3.8e-4 6.84592,1.51858 11.95752,6.59532 13.68846,13.59518 0.49148,1.98756 0.434,6.1343 -0.1134,8.1786 -1.495,5.5829 -5.59758,10.2171 -10.84372,12.24878 -0.78506,0.30404 -2.107,0.69258 -2.9377,0.86342 -1.84312,0.3791 -5.261,0.3822 -7.01362,0.006 z m -134.52248,-0.96656 c -3.42324,-0.75676 -6.0478,-2.16014 -8.59484,-4.59576 -1.69822,-1.62392 -2.86656,-3.25198 -3.8274,-5.33344 -1.23792,-2.68166 -1.4905,-3.93828 -1.4905,-7.41558 0,-3.47732 0.25258,-4.73394 1.4905,-7.4156 0.96084,-2.08146 2.12918,-3.70952 3.8274,-5.33344 2.20144,-2.10514 4.5086,-3.44678 7.42616,-4.31844 1.7731,-0.52972 5.83614,-0.72504 7.7961,-0.37478 8.49026,1.5173 14.62846,8.83618 14.62846,17.44226 0,8.45432 -5.8126,15.5744 -14.16536,17.35168 -1.64866,0.35082 -5.48932,0.34708 -7.09052,-0.006 z m 268.84896,0.004 c -3.1955,-0.73526 -6.01032,-2.21206 -8.33806,-4.37458 -7.56966,-7.03236 -7.56966,-18.91636 0,-25.94872 2.48472,-2.30838 5.63268,-3.87986 8.94992,-4.46792 1.97396,-0.34994 6.03368,-0.155 7.80718,0.37482 2.91752,0.87164 5.22468,2.21328 7.42614,4.31842 1.69826,1.62394 2.86652,3.252 3.8274,5.33344 1.23788,2.68166 1.49048,3.9383 1.49048,7.4156 0,3.4773 -0.2526,4.73394 -1.49048,7.4156 -0.96088,2.08144 -2.12914,3.7095 -3.8274,5.33344 -2.19778,2.10164 -4.49266,3.43738 -7.42614,4.32244 -1.76364,0.5321 -6.61714,0.69206 -8.41904,0.27746 z m -290.10996,-9.28968 c -17.23088,-6.93684 -36.43114,-16.39012 -59.86398,-29.4741 -7.30938,-4.08128 -11.26442,-6.34928 -11.5515,-6.62416 -0.1146,-0.1096 -0.0336,-0.1782 0.21006,-0.1782 0.21792,0 14.2748,3.88606 31.2375,8.63568 28.74626,8.04908 30.8584,8.61224 31.0936,8.2906 0.1388,-0.1898 0.25234,-0.53882 0.25234,-0.7756 0,-0.72118 0.95578,-3.77936 1.6524,-5.28708 5.9745,-12.93102 22.45718,-17.20884 35.84294,-9.30246 4.77818,2.82226 8.61964,6.98468 11.12016,12.04928 1.08704,2.20172 1.3227,2.84972 1.03632,2.84972 -0.0664,0 -0.85972,-0.6997 -1.76318,-1.55492 -4.69022,-4.43966 -10.3771,-6.73792 -16.63398,-6.72228 -5.06892,0.012 -9.24898,1.4277 -12.97612,4.3927 -6.84966,5.44906 -8.9884,15.33898 -5.14854,23.80762 0.58716,1.29496 0.71562,1.82858 0.43982,1.82688 -0.0808,-5.8e-4 -2.30736,-0.87064 -4.94784,-1.93364 z m 313.52654,1.68092 c 0,-0.154 0.26404,-0.86238 0.58676,-1.57416 3.17576,-7.0041 2.30626,-15.0989 -2.2389,-20.84266 -3.7761,-4.7718 -9.30858,-7.33536 -15.8858,-7.36096 -6.22932,-0.0242 -11.94442,2.28652 -16.63392,6.72558 -0.90348,0.85522 -1.69688,1.55492 -1.76318,1.55492 -0.28642,0 -0.0504,-0.648 1.03628,-2.84972 1.9626,-3.97504 4.51474,-7.13368 8.01684,-9.92176 6.48764,-5.16494 15.54566,-7.29464 23.24662,-5.46568 8.2036,1.94836 14.57478,7.91348 16.85452,15.7802 0.2736,0.94434 0.49756,1.91072 0.49756,2.1475 0,0.23678 0.1136,0.5858 0.2523,0.7756 0.2352,0.32164 2.3474,-0.24152 31.09366,-8.2906 16.96268,-4.74962 31.01954,-8.63568 31.23748,-8.63568 0.24634,0 0.3258,0.0686 0.21002,0.1814 -0.66074,0.64392 -18.2762,10.42448 -29.67724,16.47754 -13.24294,7.03098 -30.65854,15.20884 -42.13016,19.78312 -4.68694,1.8689 -4.70284,1.87404 -4.70284,1.51534 z M 365.41102,161.6914 c -28.59298,-14.2509 -57.86498,-23.94928 -90.20292,-29.88598 -3.39768,-0.62376 -4.06206,-0.79252 -3.8387,-0.97514 0.0448,-0.0366 1.22798,-0.6692 2.62906,-1.4055 3.44986,-1.813 6.15676,-3.4198 10.6055,-6.29534 2.0609,-1.33211 3.8912,-2.42201 4.06736,-2.42201 0.39768,0 9.61746,3.34015 15.01416,5.43937 26.166,10.17802 47.4423,21.94682 65.20372,36.06686 2.32412,1.84762 2.91314,2.4183 2.44944,2.37316 -0.0808,-0.008 -2.74826,-1.3108 -5.92762,-2.89542 z m 141.67482,2.74804 c 0,-0.20874 4.29678,-3.6232 8.42604,-6.69572 3.91274,-2.91148 11.58786,-8.01854 16.26412,-10.8223 12.67342,-7.5985 27.0615,-14.53212 43.10994,-20.77462 5.39666,-2.09922 14.6165,-5.43937 15.0142,-5.43937 0.1762,0 2.00642,1.0899 4.06732,2.42201 4.44874,2.87554 7.1557,4.48234 10.60552,6.29534 1.40106,0.7363 2.58416,1.36878 2.62906,1.4055 0.22336,0.1826 -0.441,0.35138 -3.8387,0.97514 -32.64438,5.99296 -62.11484,15.8034 -91.22806,30.36896 -2.66778,1.33472 -4.89524,2.42674 -4.95,2.42674 -0.055,0 -0.0994,-0.0728 -0.0994,-0.1616 z M 266.5522,161.1426 c -2.5788,-0.80436 -24.07948,-7.11338 -30.86276,-9.05614 -6.17512,-1.7686 -14.05962,-3.92666 -17.64354,-4.8292 -3.0824,-0.77624 -3.82184,-1.06014 -2.7865,-1.06986 0.34928,-0.004 3.7001,0.21362 7.44626,0.48198 18.86876,1.35172 40.38714,2.45106 47.98182,2.45128 3.5264,1.2e-4 5.3685,0.1642 5.3685,0.47812 0,0.1244 -0.3626,0.57482 -0.80576,1.00084 -2.49194,2.3956 -4.94168,6.44956 -5.7553,9.52426 -0.23488,0.88762 -0.5081,1.6312 -0.60714,1.65244 -0.099,0.0212 -1.15006,-0.26394 -2.33558,-0.63372 z m 342.95324,0.5736 c -0.0572,-0.0926 -0.24498,-0.78194 -0.41736,-1.532 -0.39986,-1.74004 -1.94608,-4.91476 -3.19412,-6.5582 -0.53276,-0.70148 -1.5753,-1.93598 -2.31688,-2.74336 l -1.34832,-1.46796 1.0741,-0.1276 c 0.59084,-0.0702 2.57324,-0.1372 4.40534,-0.149 7.94226,-0.051 28.48194,-1.07986 45.46142,-2.27744 12.31806,-0.8688 12.36952,-0.86604 7.35592,0.39654 -3.57276,0.89972 -11.44902,3.05522 -17.64354,4.82852 -8.80648,2.52102 -32.2898,9.4216 -33.03266,9.70666 -0.132,0.0506 -0.28672,0.016 -0.3439,-0.0762 z m -184.60976,-6.38364 c -7.55196,-7.87466 -12.2875,-11.39676 -18.92218,-14.07354 -2.03408,-0.82068 -2.24916,-0.95438 -2.20924,-1.37358 0.22864,-2.40006 0.2636,-6.68348 0.0692,-8.49852 -0.33146,-3.09842 -1.46944,-7.91624 -2.51062,-10.62963 -0.1918,-0.49964 0.51286,-0.21868 1.92536,0.76776 2.4824,1.73353 4.29634,3.28093 6.95478,5.93261 4.98596,4.97328 8.85364,10.49454 12.70432,18.13592 2.48088,4.9231 5.86628,13.12892 5.41648,13.12892 -0.0974,0 -1.64024,-1.52546 -3.42828,-3.38994 z m 25.35694,2.85106 c 0.67002,-2.22794 3.57102,-8.9711 5.5062,-12.79866 5.31378,-10.50986 11.84904,-18.48728 19.51828,-23.82543 1.27752,-0.88922 2.0237,-1.2522 2.0237,-0.9844 0,0.035 -0.22368,0.7184 -0.49706,1.51864 -0.6688,1.95755 -1.3832,4.77759 -1.78336,7.03967 -0.32982,1.86446 -0.48072,7.55482 -0.26698,10.06798 l 0.098,1.15208 -2.25352,0.90734 c -6.62498,2.66754 -11.44534,6.25502 -18.97982,14.12544 -1.75662,1.83492 -3.26894,3.33622 -3.3607,3.33622 -0.0918,0 -0.0938,-0.24248 -0.008,-0.53888 z m -18.67088,-4.16402 c -0.067,-0.1616 -0.57736,-1.6607 -1.13346,-3.33122 -3.17908,-9.54948 -9.06014,-22.01744 -14.97358,-31.74455 -6.74732,-11.09878 -13.89284,-19.422003 -20.47458,-23.849123 -5.33504,-3.58854 -13.47886,-5.43196 -17.4429,-3.94836 -5.5995,2.0957 -9.01744,8.35362 -6.98606,12.790763 0.81004,1.76934 1.76238,1.9401 2.82262,0.50612 1.8557,-2.50984 2.29716,-3.00658 3.38066,-3.80422 4.23628,-3.118583 10.17222,-2.000563 13.35484,2.51532 2.85552,4.05172 2.53422,9.59316 -0.79612,13.732 -3.48904,4.33596 -10.31464,6.45525 -16.18196,5.02436 -2.29874,-0.5606 -5.35778,-2.06336 -7.23204,-3.55278 -4.77018,-3.79066 -7.53744,-10.50504 -6.78544,-16.46392 1.1639,-9.222903 8.71876,-17.027403 18.39074,-18.998423 9.1162,-1.85778 19.60186,2.55594 29.54378,12.4358 12.06796,11.992743 20.22198,29.468333 23.77208,50.948053 0.71634,4.33428 1.06814,7.16588 0.95176,7.66034 -0.0708,0.30046 -0.112,0.31612 -0.21034,0.0798 z m 15.15024,-0.31618 c 0,-0.32478 0.131,-1.58418 0.29124,-2.79864 1.10182,-8.35418 2.6882,-15.40888 5.0939,-22.65314 1.72912,-5.20682 2.75766,-7.76585 4.88288,-12.14913 4.18072,-8.62264 8.56044,-14.88142 14.6037,-20.869123 9.89302,-9.80212 20.36112,-14.18866 29.44326,-12.33782 9.49262,1.93446 16.9302,9.44704 18.31528,18.499963 0.9422,6.15766 -1.78328,13.0473 -6.70994,16.96238 -5.43856,4.32178 -12.60232,5.19143 -18.59742,2.25766 -7.58646,-3.7125 -9.923,-12.37292 -4.95552,-18.36768 3.06954,-3.704343 8.8553,-4.437443 12.69762,-1.60888 1.08352,0.79764 1.52496,1.29438 3.38066,3.80422 1.06024,1.43398 2.0126,1.26322 2.8226,-0.50612 2.03144,-4.437143 -1.38652,-10.695063 -6.98606,-12.790763 -3.96404,-1.4836 -12.10782,0.35982 -17.44286,3.94836 -9.05674,6.091923 -18.65708,18.900683 -27.42182,36.586133 -3.51868,7.09992 -6.14262,13.32534 -8.05278,19.10552 -1.09218,3.305 -1.36474,3.88754 -1.36474,2.91706 z m -112.2817,-48.25329 c -8.14152,-4.06706 -11.5612,-5.678463 -17.83182,-8.402583 -15.02638,-6.52784 -30.16154,-11.79558 -45.46134,-15.82262 -4.33492,-1.141 -4.11504,-1.0714 -4.11504,-1.30272 0,-0.3202 3.52318,-10.23724 3.69964,-10.41368 0.24548,-0.24548 8.65398,3.18256 15.89578,6.4805 17.99614,8.19556 35.98834,18.69212 52.06454,30.374203 3.33058,2.42024 4.04056,2.99768 3.64696,2.96618 -0.0872,-0.006 -3.64162,-1.75266 -7.89872,-3.87928 z m 201.93612,3.51612 c 1.51512,-1.47348 16.39348,-11.604123 22.82318,-15.540263 15.09676,-9.24186 29.93066,-16.69304 45.93118,-23.07156 1.40806,-0.56128 2.60188,-0.93296 2.69566,-0.8392 0.25244,0.25242 3.77128,10.42074 3.64862,10.54338 -0.058,0.0582 -2.2105,0.66972 -4.78268,1.3588 -13.84758,3.7096 -26.65758,8.058 -39.58096,13.43582 -8.47426,3.5264 -14.18468,6.160423 -24.01962,11.079463 -3.74912,1.87518 -6.8808,3.4094 -6.95922,3.4094 -0.0784,0 0.0316,-0.1692 0.24384,-0.37584 z" />
  <path
     style="fill:#ff2b2d;fill-opacity:1;fill-rule:evenodd"
     d=""
     id="path4170"
     inkscape:connector-curvature="0" />
  <path
     style="fill:#ff2b2d;fill-opacity:1;fill-rule:evenodd"
     d=""
     id="path4172"
     inkscape:connector-curvature="0" />
  <path
     style="fill:#ffffff;fill-opacity:0;fill-rule:evenodd"
     d="m 367.75685,189.15614 c -0.0694,-0.74438 -3.60468,-9.92396 -5.28808,-13.7309 -5.74605,-12.99446 -12.54351,-24.49195 -19.51582,-33.00984 -3.16105,-3.86177 -8.40621,-8.91823 -11.12806,-10.72771 -4.24228,-2.82026 -9.28464,-4.46195 -13.92312,-4.53306 -2.6509,-0.0406 -2.99634,0.0251 -4.80461,0.91493 -2.28265,1.12323 -4.3676,3.09806 -5.57945,5.28478 -0.76555,1.38141 -0.86387,1.85505 -0.86387,4.16157 0,2.17882 0.10302,2.74091 0.63256,3.45103 1.04326,1.39903 1.79955,1.13776 3.78183,-1.30647 2.29302,-2.82737 4.4684,-3.99709 7.43361,-3.99709 1.09958,0 2.63577,0.21689 3.41375,0.48198 1.92475,0.65582 4.46057,3.03345 5.50616,5.16268 0.7393,1.50548 0.83853,2.04488 0.83853,4.55838 0,2.5899 -0.0887,3.03806 -0.96866,4.89598 -1.78105,3.76032 -5.59628,6.59066 -10.19862,7.56588 -4.13769,0.87677 -7.56015,0.36538 -11.6053,-1.73411 -4.74081,-2.46054 -8.14499,-6.977 -9.3537,-12.40992 -2.5937,-11.6582 7.77902,-24.1389 20.72288,-24.93425 8.09567,-0.49745 16.65616,3.38613 25.27526,11.46646 12.06093,11.307 20.3753,27.78733 24.37244,48.30985 1.10764,5.68696 1.61645,9.22057 1.43143,9.94102 -0.0794,0.30916 -0.16001,0.39413 -0.17916,0.18881 z"
     id="path4180"
     inkscape:connector-curvature="0" />
  <path
     style="fill:#ffffff;fill-opacity:0;fill-rule:evenodd"
     d="m 384.22957,185.40321 c 0.004,-1.36527 1.61541,-9.21199 2.8613,-13.93004 3.0757,-11.64727 8.46864,-23.36 14.56265,-31.62809 3.01834,-4.09514 10.65065,-11.49592 14.4694,-14.03045 8.24427,-5.47177 15.45953,-7.38882 21.82355,-5.79838 6.55323,1.63773 12.37358,6.17789 15.39814,12.01129 1.67883,3.23793 2.10298,4.92233 2.09094,8.30366 -0.0191,5.36607 -1.45301,8.69405 -5.489,12.73942 -3.78581,3.79462 -6.90498,5.09947 -12.18993,5.09947 -4.78327,0 -7.88949,-1.39244 -11.22396,-5.03144 -2.10736,-2.2998 -2.69389,-3.8661 -2.69389,-7.19381 0,-3.62808 0.42329,-4.73837 2.68009,-7.02982 2.21808,-2.25214 3.15462,-2.63907 6.53903,-2.70157 2.56026,-0.0473 3.41571,0.33817 7.20436,3.24613 1.58046,1.21308 2.98494,2.20559 3.12108,2.20559 0.13613,0 0.48694,-0.36544 0.77958,-0.8121 0.79065,-1.20676 0.70386,-5.15667 -0.15561,-7.082 -0.78736,-1.76378 -3.28225,-4.24953 -5.47996,-5.45988 -1.55799,-0.85803 -1.78954,-0.89812 -4.93567,-0.85459 -7.64032,0.10571 -13.27619,3.00197 -20.72435,10.6502 -9.45864,9.7127 -16.32559,20.93263 -25.45728,41.59471 -1.623,3.67235 -3.00315,6.67699 -3.067,6.67699 -0.0638,0 -0.11491,-0.43888 -0.11347,-0.97529 z"
     id="path4182"
     inkscape:connector-curvature="0" />
  <path
     style="fill:#ffffff;fill-opacity:0;fill-rule:evenodd"
     d="m 384.22957,185.40321 c 0.004,-1.36527 1.61541,-9.21199 2.8613,-13.93004 3.0757,-11.64727 8.46864,-23.36 14.56265,-31.62809 3.01834,-4.09514 10.65065,-11.49592 14.4694,-14.03045 8.24427,-5.47177 15.45953,-7.38882 21.82355,-5.79838 6.55323,1.63773 12.37358,6.17789 15.39814,12.01129 1.67883,3.23793 2.10298,4.92233 2.09094,8.30366 -0.0191,5.36607 -1.45301,8.69405 -5.489,12.73942 -3.78581,3.79462 -6.90498,5.09947 -12.18993,5.09947 -4.78327,0 -7.88949,-1.39244 -11.22396,-5.03144 -2.10736,-2.2998 -2.69389,-3.8661 -2.69389,-7.19381 0,-3.62808 0.42329,-4.73837 2.68009,-7.02982 2.21808,-2.25214 3.15462,-2.63907 6.53903,-2.70157 2.56026,-0.0473 3.41571,0.33817 7.20436,3.24613 1.58046,1.21308 2.98494,2.20559 3.12108,2.20559 0.13613,0 0.48694,-0.36544 0.77958,-0.8121 0.79065,-1.20676 0.70386,-5.15667 -0.15561,-7.082 -0.78736,-1.76378 -3.28225,-4.24953 -5.47996,-5.45988 -1.55799,-0.85803 -1.78954,-0.89812 -4.93567,-0.85459 -7.64032,0.10571 -13.27619,3.00197 -20.72435,10.6502 -9.45864,9.7127 -16.32559,20.93263 -25.45728,41.59471 -1.623,3.67235 -3.00315,6.67699 -3.067,6.67699 -0.0638,0 -0.11491,-0.43888 -0.11347,-0.97529 z"
     id="path4184"
     inkscape:connector-curvature="0" />
  <path
     style="fill:#ffffff;fill-opacity:0;fill-rule:evenodd"
     d="m 384.22957,185.40321 c 0.004,-1.36527 1.61541,-9.21199 2.8613,-13.93004 3.0757,-11.64727 8.46864,-23.36 14.56265,-31.62809 3.01834,-4.09514 10.65065,-11.49592 14.4694,-14.03045 8.24427,-5.47177 15.45953,-7.38882 21.82355,-5.79838 6.55323,1.63773 12.37358,6.17789 15.39814,12.01129 1.67883,3.23793 2.10298,4.92233 2.09094,8.30366 -0.0191,5.36607 -1.45301,8.69405 -5.489,12.73942 -3.78581,3.79462 -6.90498,5.09947 -12.18993,5.09947 -4.78327,0 -7.88949,-1.39244 -11.22396,-5.03144 -2.10736,-2.2998 -2.69389,-3.8661 -2.69389,-7.19381 0,-3.62808 0.42329,-4.73837 2.68009,-7.02982 2.21808,-2.25214 3.15462,-2.63907 6.53903,-2.70157 2.56026,-0.0473 3.41571,0.33817 7.20436,3.24613 1.58046,1.21308 2.98494,2.20559 3.12108,2.20559 0.13613,0 0.48694,-0.36544 0.77958,-0.8121 0.79065,-1.20676 0.70386,-5.15667 -0.15561,-7.082 -0.78736,-1.76378 -3.28225,-4.24953 -5.47996,-5.45988 -1.55799,-0.85803 -1.78954,-0.89812 -4.93567,-0.85459 -7.64032,0.10571 -13.27619,3.00197 -20.72435,10.6502 -9.45864,9.7127 -16.32559,20.93263 -25.45728,41.59471 -1.623,3.67235 -3.00315,6.67699 -3.067,6.67699 -0.0638,0 -0.11491,-0.43888 -0.11347,-0.97529 z"
     id="path4186"
     inkscape:connector-curvature="0" />
  <path
     style="fill:#ffffff;fill-opacity:0;fill-rule:evenodd"
     d="m 384.22957,185.40321 c 0.004,-1.36527 1.61541,-9.21199 2.8613,-13.93004 3.0757,-11.64727 8.46864,-23.36 14.56265,-31.62809 3.01834,-4.09514 10.65065,-11.49592 14.4694,-14.03045 8.24427,-5.47177 15.45953,-7.38882 21.82355,-5.79838 6.55323,1.63773 12.37358,6.17789 15.39814,12.01129 1.67883,3.23793 2.10298,4.92233 2.09094,8.30366 -0.0191,5.36607 -1.45301,8.69405 -5.489,12.73942 -3.78581,3.79462 -6.90498,5.09947 -12.18993,5.09947 -4.78327,0 -7.88949,-1.39244 -11.22396,-5.03144 -2.10736,-2.2998 -2.69389,-3.8661 -2.69389,-7.19381 0,-3.62808 0.42329,-4.73837 2.68009,-7.02982 2.21808,-2.25214 3.15462,-2.63907 6.53903,-2.70157 2.56026,-0.0473 3.41571,0.33817 7.20436,3.24613 1.58046,1.21308 2.98494,2.20559 3.12108,2.20559 0.13613,0 0.48694,-0.36544 0.77958,-0.8121 0.79065,-1.20676 0.70386,-5.15667 -0.15561,-7.082 -0.78736,-1.76378 -3.28225,-4.24953 -5.47996,-5.45988 -1.55799,-0.85803 -1.78954,-0.89812 -4.93567,-0.85459 -7.64032,0.10571 -13.27619,3.00197 -20.72435,10.6502 -9.45864,9.7127 -16.32559,20.93263 -25.45728,41.59471 -1.623,3.67235 -3.00315,6.67699 -3.067,6.67699 -0.0638,0 -0.11491,-0.43888 -0.11347,-0.97529 z"
     id="path4188"
     inkscape:connector-curvature="0" />
  <path
     style="fill:#ffffff;fill-opacity:0;fill-rule:evenodd"
     d="m 384.22957,185.40321 c 0.004,-1.36527 1.61541,-9.21199 2.8613,-13.93004 3.0757,-11.64727 8.46864,-23.36 14.56265,-31.62809 3.01834,-4.09514 10.65065,-11.49592 14.4694,-14.03045 8.24427,-5.47177 15.45953,-7.38882 21.82355,-5.79838 6.55323,1.63773 12.37358,6.17789 15.39814,12.01129 1.67883,3.23793 2.10298,4.92233 2.09094,8.30366 -0.0191,5.36607 -1.45301,8.69405 -5.489,12.73942 -3.78581,3.79462 -6.90498,5.09947 -12.18993,5.09947 -4.78327,0 -7.88949,-1.39244 -11.22396,-5.03144 -2.10736,-2.2998 -2.69389,-3.8661 -2.69389,-7.19381 0,-3.62808 0.42329,-4.73837 2.68009,-7.02982 2.21808,-2.25214 3.15462,-2.63907 6.53903,-2.70157 2.56026,-0.0473 3.41571,0.33817 7.20436,3.24613 1.58046,1.21308 2.98494,2.20559 3.12108,2.20559 0.13613,0 0.48694,-0.36544 0.77958,-0.8121 0.79065,-1.20676 0.70386,-5.15667 -0.15561,-7.082 -0.78736,-1.76378 -3.28225,-4.24953 -5.47996,-5.45988 -1.55799,-0.85803 -1.78954,-0.89812 -4.93567,-0.85459 -7.64032,0.10571 -13.27619,3.00197 -20.72435,10.6502 -9.45864,9.7127 -16.32559,20.93263 -25.45728,41.59471 -1.623,3.67235 -3.00315,6.67699 -3.067,6.67699 -0.0638,0 -0.11491,-0.43888 -0.11347,-0.97529 z"
     id="path4190"
     inkscape:connector-curvature="0" />
  <path
     style="fill:#ffffff;fill-opacity:0;fill-rule:evenodd"
     d="m 387.65165,193.13051 c 0.12167,-0.49514 1.33709,-3.35372 2.70095,-6.35239 4.47417,-9.83719 9.07951,-16.84462 14.86368,-22.61639 2.94761,-2.94128 7.69246,-6.81866 7.98554,-6.52558 0.0706,0.0706 -0.1981,1.26622 -0.59715,2.65687 -1.11563,3.88776 -1.36782,5.70239 -1.57483,11.33183 -0.18716,5.08979 -0.20641,5.20803 -0.88987,5.46788 -0.38421,0.14608 -2.08085,0.95651 -3.77031,1.80097 -5.23866,2.61846 -7.5065,4.34383 -14.96586,11.38596 -3.38729,3.19784 -3.94073,3.61834 -3.75215,2.85085 z"
     id="path4192"
     inkscape:connector-curvature="0" />
  <path
     style="fill:#ffffff;fill-opacity:0;fill-rule:evenodd"
     d="m 367.75685,189.15614 c -0.0694,-0.74438 -3.60468,-9.92396 -5.28808,-13.7309 -5.74605,-12.99446 -12.54351,-24.49195 -19.51582,-33.00984 -3.16105,-3.86177 -8.40621,-8.91823 -11.12806,-10.72771 -4.24228,-2.82026 -9.28464,-4.46195 -13.92312,-4.53306 -2.6509,-0.0406 -2.99634,0.0251 -4.80461,0.91493 -2.28265,1.12323 -4.3676,3.09806 -5.57945,5.28478 -0.76555,1.38141 -0.86387,1.85505 -0.86387,4.16157 0,2.17882 0.10302,2.74091 0.63256,3.45103 1.04326,1.39903 1.79955,1.13776 3.78183,-1.30647 2.29302,-2.82737 4.4684,-3.99709 7.43361,-3.99709 1.09958,0 2.63577,0.21689 3.41375,0.48198 1.92475,0.65582 4.46057,3.03345 5.50616,5.16268 0.7393,1.50548 0.83853,2.04488 0.83853,4.55838 0,2.5899 -0.0887,3.03806 -0.96866,4.89598 -1.78105,3.76032 -5.59628,6.59066 -10.19862,7.56588 -4.13769,0.87677 -7.56015,0.36538 -11.6053,-1.73411 -4.74081,-2.46054 -8.14499,-6.977 -9.3537,-12.40992 -2.5937,-11.6582 7.77902,-24.1389 20.72288,-24.93425 8.09567,-0.49745 16.65616,3.38613 25.27526,11.46646 12.06093,11.307 20.3753,27.78733 24.37244,48.30985 1.10764,5.68696 1.61645,9.22057 1.43143,9.94102 -0.0794,0.30916 -0.16001,0.39413 -0.17916,0.18881 z"
     id="path4194"
     inkscape:connector-curvature="0" />
  <path
     style="fill:#ffffff;fill-opacity:0;fill-rule:evenodd"
     d="m 384.22957,185.40321 c 0.004,-1.36527 1.61541,-9.21199 2.8613,-13.93004 3.0757,-11.64727 8.46864,-23.36 14.56265,-31.62809 3.01834,-4.09514 10.65065,-11.49592 14.4694,-14.03045 8.24427,-5.47177 15.45953,-7.38882 21.82355,-5.79838 6.55323,1.63773 12.37358,6.17789 15.39814,12.01129 1.67883,3.23793 2.10298,4.92233 2.09094,8.30366 -0.0191,5.36607 -1.45301,8.69405 -5.489,12.73942 -3.78581,3.79462 -6.90498,5.09947 -12.18993,5.09947 -4.78327,0 -7.88949,-1.39244 -11.22396,-5.03144 -2.10736,-2.2998 -2.69389,-3.8661 -2.69389,-7.19381 0,-3.62808 0.42329,-4.73837 2.68009,-7.02982 2.21808,-2.25214 3.15462,-2.63907 6.53903,-2.70157 2.56026,-0.0473 3.41571,0.33817 7.20436,3.24613 1.58046,1.21308 2.98494,2.20559 3.12108,2.20559 0.13613,0 0.48694,-0.36544 0.77958,-0.8121 0.79065,-1.20676 0.70386,-5.15667 -0.15561,-7.082 -0.78736,-1.76378 -3.28225,-4.24953 -5.47996,-5.45988 -1.55799,-0.85803 -1.78954,-0.89812 -4.93567,-0.85459 -7.64032,0.10571 -13.27619,3.00197 -20.72435,10.6502 -9.45864,9.7127 -16.32559,20.93263 -25.45728,41.59471 -1.623,3.67235 -3.00315,6.67699 -3.067,6.67699 -0.0638,0 -0.11491,-0.43888 -0.11347,-0.97529 z"
     id="path4196"
     inkscape:connector-curvature="0" />
  <path
     style="fill:#ffffff;fill-opacity:0;fill-rule:evenodd"
     d="m 384.22957,185.40321 c 0.004,-1.36527 1.61541,-9.21199 2.8613,-13.93004 3.0757,-11.64727 8.46864,-23.36 14.56265,-31.62809 3.01834,-4.09514 10.65065,-11.49592 14.4694,-14.03045 8.24427,-5.47177 15.45953,-7.38882 21.82355,-5.79838 6.55323,1.63773 12.37358,6.17789 15.39814,12.01129 1.67883,3.23793 2.10298,4.92233 2.09094,8.30366 -0.0191,5.36607 -1.45301,8.69405 -5.489,12.73942 -3.78581,3.79462 -6.90498,5.09947 -12.18993,5.09947 -4.78327,0 -7.88949,-1.39244 -11.22396,-5.03144 -2.10736,-2.2998 -2.69389,-3.8661 -2.69389,-7.19381 0,-3.62808 0.42329,-4.73837 2.68009,-7.02982 2.21808,-2.25214 3.15462,-2.63907 6.53903,-2.70157 2.56026,-0.0473 3.41571,0.33817 7.20436,3.24613 1.58046,1.21308 2.98494,2.20559 3.12108,2.20559 0.13613,0 0.48694,-0.36544 0.77958,-0.8121 0.79065,-1.20676 0.70386,-5.15667 -0.15561,-7.082 -0.78736,-1.76378 -3.28225,-4.24953 -5.47996,-5.45988 -1.55799,-0.85803 -1.78954,-0.89812 -4.93567,-0.85459 -7.64032,0.10571 -13.27619,3.00197 -20.72435,10.6502 -9.45864,9.7127 -16.32559,20.93263 -25.45728,41.59471 -1.623,3.67235 -3.00315,6.67699 -3.067,6.67699 -0.0638,0 -0.11491,-0.43888 -0.11347,-0.97529 z"
     id="path4198"
     inkscape:connector-curvature="0" />
  <path
     style="fill:#ffffff;fill-opacity:0;fill-rule:evenodd"
     d="m 384.22957,185.40321 c 0.004,-1.36527 1.61541,-9.21199 2.8613,-13.93004 3.0757,-11.64727 8.46864,-23.36 14.56265,-31.62809 3.01834,-4.09514 10.65065,-11.49592 14.4694,-14.03045 8.24427,-5.47177 15.45953,-7.38882 21.82355,-5.79838 6.55323,1.63773 12.37358,6.17789 15.39814,12.01129 1.67883,3.23793 2.10298,4.92233 2.09094,8.30366 -0.0191,5.36607 -1.45301,8.69405 -5.489,12.73942 -3.78581,3.79462 -6.90498,5.09947 -12.18993,5.09947 -4.78327,0 -7.88949,-1.39244 -11.22396,-5.03144 -2.10736,-2.2998 -2.69389,-3.8661 -2.69389,-7.19381 0,-3.62808 0.42329,-4.73837 2.68009,-7.02982 2.21808,-2.25214 3.15462,-2.63907 6.53903,-2.70157 2.56026,-0.0473 3.41571,0.33817 7.20436,3.24613 1.58046,1.21308 2.98494,2.20559 3.12108,2.20559 0.13613,0 0.48694,-0.36544 0.77958,-0.8121 0.79065,-1.20676 0.70386,-5.15667 -0.15561,-7.082 -0.78736,-1.76378 -3.28225,-4.24953 -5.47996,-5.45988 -1.55799,-0.85803 -1.78954,-0.89812 -4.93567,-0.85459 -7.64032,0.10571 -13.27619,3.00197 -20.72435,10.6502 -9.45864,9.7127 -16.32559,20.93263 -25.45728,41.59471 -1.623,3.67235 -3.00315,6.67699 -3.067,6.67699 -0.0638,0 -0.11491,-0.43888 -0.11347,-0.97529 z"
     id="path4200"
     inkscape:connector-curvature="0" />
  <path
     style="fill:#ffffff;fill-opacity:0;fill-rule:evenodd"
     d="m 387.65165,193.13051 c 0.12167,-0.49514 1.33709,-3.35372 2.70095,-6.35239 4.47417,-9.83719 9.07951,-16.84462 14.86368,-22.61639 2.94761,-2.94128 7.69246,-6.81866 7.98554,-6.52558 0.0706,0.0706 -0.1981,1.26622 -0.59715,2.65687 -1.11563,3.88776 -1.36782,5.70239 -1.57483,11.33183 -0.18716,5.08979 -0.20641,5.20803 -0.88987,5.46788 -0.38421,0.14608 -2.08085,0.95651 -3.77031,1.80097 -5.23866,2.61846 -7.5065,4.34383 -14.96586,11.38596 -3.38729,3.19784 -3.94073,3.61834 -3.75215,2.85085 z"
     id="path4202"
     inkscape:connector-curvature="0" />
  <path
     style="fill:#ffffff;fill-opacity:0;fill-rule:evenodd"
     d="m 384.22957,185.40321 c 0.004,-1.36527 1.61541,-9.21199 2.8613,-13.93004 3.0757,-11.64727 8.46864,-23.36 14.56265,-31.62809 3.01834,-4.09514 10.65065,-11.49592 14.4694,-14.03045 8.24427,-5.47177 15.45953,-7.38882 21.82355,-5.79838 6.55323,1.63773 12.37358,6.17789 15.39814,12.01129 1.67883,3.23793 2.10298,4.92233 2.09094,8.30366 -0.0191,5.36607 -1.45301,8.69405 -5.489,12.73942 -3.78581,3.79462 -6.90498,5.09947 -12.18993,5.09947 -4.78327,0 -7.88949,-1.39244 -11.22396,-5.03144 -2.10736,-2.2998 -2.69389,-3.8661 -2.69389,-7.19381 0,-3.62808 0.42329,-4.73837 2.68009,-7.02982 2.21808,-2.25214 3.15462,-2.63907 6.53903,-2.70157 2.56026,-0.0473 3.41571,0.33817 7.20436,3.24613 1.58046,1.21308 2.98494,2.20559 3.12108,2.20559 0.13613,0 0.48694,-0.36544 0.77958,-0.8121 0.79065,-1.20676 0.70386,-5.15667 -0.15561,-7.082 -0.78736,-1.76378 -3.28225,-4.24953 -5.47996,-5.45988 -1.55799,-0.85803 -1.78954,-0.89812 -4.93567,-0.85459 -7.64032,0.10571 -13.27619,3.00197 -20.72435,10.6502 -9.45864,9.7127 -16.32559,20.93263 -25.45728,41.59471 -1.623,3.67235 -3.00315,6.67699 -3.067,6.67699 -0.0638,0 -0.11491,-0.43888 -0.11347,-0.97529 z"
     id="path4204"
     inkscape:connector-curvature="0" />
  <path
     style="fill:#ffffff;fill-opacity:0;fill-rule:evenodd"
     d="M 318.38086 119.20898 C 317.87135 119.20589 317.3634 119.21891 316.85742 119.25 C 303.91356 120.04535 293.54107 132.52539 296.13477 144.18359 C 297.34348 149.61651 300.74747 154.13321 305.48828 156.59375 C 309.53343 158.69324 312.95606 159.20489 317.09375 158.32812 C 318.86195 157.95345 320.5095 157.30151 321.97461 156.43164 C 321.04994 155.12751 320.10696 153.83668 319.125 152.57812 C 317.29758 150.23594 319.739 148.49179 321.56641 150.83398 C 322.53714 152.07818 323.46983 153.3539 324.38477 154.64258 C 325.31112 153.79281 326.10563 152.83447 326.73633 151.78906 C 326.75877 151.4317 326.84747 150.03759 326.84961 150.02344 C 326.93451 149.46284 327.07737 148.91322 327.18945 148.35742 C 327.42869 147.17096 327.54909 146.4255 327.89648 145.21875 C 327.99335 144.88227 328.11022 144.5524 328.22266 144.2207 C 328.15505 143.00612 327.96187 142.40821 327.42188 141.30859 C 326.37628 139.17936 323.84077 136.80035 321.91602 136.14453 C 321.13804 135.87944 319.60153 135.66406 318.50195 135.66406 C 315.53674 135.66406 313.36138 136.83279 311.06836 139.66016 C 309.08608 142.10439 308.33037 142.36583 307.28711 140.9668 C 306.75757 140.25668 306.6543 139.69445 306.6543 137.51562 C 306.6543 135.2091 306.75203 134.73493 307.51758 133.35352 C 308.72943 131.1668 310.81501 129.19354 313.09766 128.07031 C 314.90593 127.18048 315.25144 127.1137 317.90234 127.1543 C 322.54082 127.22541 327.58194 128.86724 331.82422 131.6875 C 332.24296 131.96588 332.73637 132.34187 333.25781 132.75781 C 333.27628 132.70085 333.31096 132.59921 333.32617 132.55273 C 333.35789 132.46083 333.38925 132.36895 333.42188 132.27734 C 333.38315 132.16355 333.38482 132.04763 333.4082 131.9375 C 333.38848 131.89554 333.37592 131.84514 333.35352 131.80664 C 333.35752 131.61488 333.33039 131.41872 333.36719 131.23047 C 333.52755 130.41092 334.01388 129.40105 334.27734 128.79102 C 334.65552 128.3811 334.95491 128.00876 335.29297 127.59375 C 335.2632 127.61802 335.2344 127.64323 335.20508 127.66797 C 335.25597 127.61745 335.40272 127.46198 335.35742 127.51758 C 335.33558 127.54435 335.31445 127.56737 335.29297 127.59375 C 335.52966 127.40079 335.77782 127.22101 335.99219 127.00391 C 336.12417 126.87024 335.71315 127.27391 335.53516 127.33398 C 335.44696 127.36378 335.64511 127.18504 335.69336 127.10547 C 335.76616 126.98542 335.81825 126.85291 335.89648 126.73633 C 336.4146 125.96421 336.43274 125.96602 336.43359 125.98438 C 330.29032 121.52986 324.22234 119.24443 318.38086 119.20898 z M 333.4082 131.9375 C 333.43363 131.9916 333.45823 132.04724 333.48047 132.10547 C 333.52205 131.9871 333.56604 131.86971 333.60352 131.75 C 333.71754 131.38575 333.47699 131.61351 333.4082 131.9375 z M 333.48047 132.10547 C 333.4604 132.16261 333.44219 132.22029 333.42188 132.27734 C 333.45525 132.37539 333.53196 132.46098 333.64062 132.53516 C 333.59078 132.38739 333.53473 132.24754 333.48047 132.10547 z M 338.81445 127.81836 C 338.70822 127.95125 338.59832 128.08129 338.50391 128.22266 C 338.19986 128.67795 337.98693 129.1756 337.55469 129.51953 L 337.44531 129.67188 C 337.46015 129.63717 337.48228 129.59093 337.49023 129.56836 C 337.48524 129.57195 337.47966 129.57458 337.47461 129.57812 C 337.33746 129.77586 337.22305 129.9895 337.07812 130.18164 C 336.98125 130.31007 336.86004 130.41973 336.74219 130.5332 C 336.73887 130.55269 336.74183 130.54592 336.73828 130.56641 C 336.73166 130.60292 336.62892 130.93452 336.53125 131.17969 C 336.86667 131.71677 336.28856 133.17962 336.17773 133.49023 C 336.03011 133.93715 335.87939 134.40498 335.71875 134.86914 C 338.19554 137.13057 340.9801 140.00562 342.95312 142.41602 C 348.66075 149.38887 354.23856 158.37981 359.23047 168.5332 C 359.46719 168.56523 359.79909 168.62371 360 168.64648 C 360.89527 168.74798 361.79732 168.7955 362.69531 168.86914 C 363.3509 168.85358 363.64819 168.84332 364.04102 168.83398 C 359.51888 153.01294 352.12158 140.08115 342.13281 130.7168 C 341.02565 129.67884 339.91882 128.71741 338.81445 127.81836 z M 335.4707 130.62891 C 334.78252 130.58251 332.93227 131.14944 333.5625 131.42969 C 334.29141 131.7538 335.1379 131.01652 335.92969 130.96484 C 335.8095 130.78632 335.67182 130.64246 335.4707 130.62891 z M 360.76172 171.71484 C 361.32072 172.90904 361.88068 174.10419 362.42188 175.32617 C 364.12529 176.12815 365.03177 176.61901 366.10352 177.12305 C 365.72279 175.31451 365.29623 173.54962 364.84766 171.80664 C 364.3026 171.82989 363.78258 171.83909 362.77148 171.86719 C 362.10159 171.81614 361.43161 171.76596 360.76172 171.71484 z M 364.17578 179.52539 C 365.84145 183.6674 367.70756 188.61729 367.75781 189.15625 C 367.77696 189.36157 367.85615 189.27596 367.93555 188.9668 C 368.10042 188.32481 367.68619 185.34585 366.81641 180.70312 C 365.60352 180.21516 364.88873 179.87968 364.17578 179.52539 z "
     id="path4206" />
  <path
     style="fill:#ffffff;fill-opacity:0;fill-rule:evenodd"
     d="m 384.22957,185.40321 c 0.004,-1.36527 1.61541,-9.21199 2.8613,-13.93004 3.0757,-11.64727 8.46864,-23.36 14.56265,-31.62809 3.01834,-4.09514 10.65065,-11.49592 14.4694,-14.03045 8.24427,-5.47177 15.45953,-7.38882 21.82355,-5.79838 6.55323,1.63773 12.37358,6.17789 15.39814,12.01129 1.67883,3.23793 2.10298,4.92233 2.09094,8.30366 -0.0191,5.36607 -1.45301,8.69405 -5.489,12.73942 -3.78581,3.79462 -6.90498,5.09947 -12.18993,5.09947 -4.78327,0 -7.88949,-1.39244 -11.22396,-5.03144 -2.10736,-2.2998 -2.69389,-3.8661 -2.69389,-7.19381 0,-3.62808 0.42329,-4.73837 2.68009,-7.02982 2.21808,-2.25214 3.15462,-2.63907 6.53903,-2.70157 2.56026,-0.0473 3.41571,0.33817 7.20436,3.24613 1.58046,1.21308 2.98494,2.20559 3.12108,2.20559 0.13613,0 0.48694,-0.36544 0.77958,-0.8121 0.79065,-1.20676 0.70386,-5.15667 -0.15561,-7.082 -0.78736,-1.76378 -3.28225,-4.24953 -5.47996,-5.45988 -1.55799,-0.85803 -1.78954,-0.89812 -4.93567,-0.85459 -7.64032,0.10571 -13.27619,3.00197 -20.72435,10.6502 -9.45864,9.7127 -16.32559,20.93263 -25.45728,41.59471 -1.623,3.67235 -3.00315,6.67699 -3.067,6.67699 -0.0638,0 -0.11491,-0.43888 -0.11347,-0.97529 z"
     id="path4218"
     inkscape:connector-curvature="0" />
  <path
     style="fill:#ffffff;fill-opacity:0;fill-rule:evenodd"
     d="m 384.22957,185.40321 c 0.004,-1.36527 1.61541,-9.21199 2.8613,-13.93004 3.0757,-11.64727 8.46864,-23.36 14.56265,-31.62809 3.01834,-4.09514 10.65065,-11.49592 14.4694,-14.03045 8.24427,-5.47177 15.45953,-7.38882 21.82355,-5.79838 6.55323,1.63773 12.37358,6.17789 15.39814,12.01129 1.67883,3.23793 2.10298,4.92233 2.09094,8.30366 -0.0191,5.36607 -1.45301,8.69405 -5.489,12.73942 -3.78581,3.79462 -6.90498,5.09947 -12.18993,5.09947 -4.78327,0 -7.88949,-1.39244 -11.22396,-5.03144 -2.10736,-2.2998 -2.69389,-3.8661 -2.69389,-7.19381 0,-3.62808 0.42329,-4.73837 2.68009,-7.02982 2.21808,-2.25214 3.15462,-2.63907 6.53903,-2.70157 2.56026,-0.0473 3.41571,0.33817 7.20436,3.24613 1.58046,1.21308 2.98494,2.20559 3.12108,2.20559 0.13613,0 0.48694,-0.36544 0.77958,-0.8121 0.79065,-1.20676 0.70386,-5.15667 -0.15561,-7.082 -0.78736,-1.76378 -3.28225,-4.24953 -5.47996,-5.45988 -1.55799,-0.85803 -1.78954,-0.89812 -4.93567,-0.85459 -7.64032,0.10571 -13.27619,3.00197 -20.72435,10.6502 -9.45864,9.7127 -16.32559,20.93263 -25.45728,41.59471 -1.623,3.67235 -3.00315,6.67699 -3.067,6.67699 -0.0638,0 -0.11491,-0.43888 -0.11347,-0.97529 z"
     id="path4220"
     inkscape:connector-curvature="0" />
  <path
     style="fill:#ffffff;fill-opacity:0;fill-rule:evenodd"
     d="m 384.22957,185.40321 c 0.004,-1.36527 1.61541,-9.21199 2.8613,-13.93004 3.0757,-11.64727 8.46864,-23.36 14.56265,-31.62809 3.01834,-4.09514 10.65065,-11.49592 14.4694,-14.03045 8.24427,-5.47177 15.45953,-7.38882 21.82355,-5.79838 6.55323,1.63773 12.37358,6.17789 15.39814,12.01129 1.67883,3.23793 2.10298,4.92233 2.09094,8.30366 -0.0191,5.36607 -1.45301,8.69405 -5.489,12.73942 -3.78581,3.79462 -6.90498,5.09947 -12.18993,5.09947 -4.78327,0 -7.88949,-1.39244 -11.22396,-5.03144 -2.10736,-2.2998 -2.69389,-3.8661 -2.69389,-7.19381 0,-3.62808 0.42329,-4.73837 2.68009,-7.02982 2.21808,-2.25214 3.15462,-2.63907 6.53903,-2.70157 2.56026,-0.0473 3.41571,0.33817 7.20436,3.24613 1.58046,1.21308 2.98494,2.20559 3.12108,2.20559 0.13613,0 0.48694,-0.36544 0.77958,-0.8121 0.79065,-1.20676 0.70386,-5.15667 -0.15561,-7.082 -0.78736,-1.76378 -3.28225,-4.24953 -5.47996,-5.45988 -1.55799,-0.85803 -1.78954,-0.89812 -4.93567,-0.85459 -7.64032,0.10571 -13.27619,3.00197 -20.72435,10.6502 -9.45864,9.7127 -16.32559,20.93263 -25.45728,41.59471 -1.623,3.67235 -3.00315,6.67699 -3.067,6.67699 -0.0638,0 -0.11491,-0.43888 -0.11347,-0.97529 z"
     id="path4222"
     inkscape:connector-curvature="0" />
  <path
     style="fill:#ffffff;fill-opacity:0;fill-rule:evenodd"
     d="m 384.22957,185.40321 c 0.004,-1.36527 1.61541,-9.21199 2.8613,-13.93004 3.0757,-11.64727 8.46864,-23.36 14.56265,-31.62809 3.01834,-4.09514 10.65065,-11.49592 14.4694,-14.03045 8.24427,-5.47177 15.45953,-7.38882 21.82355,-5.79838 6.55323,1.63773 12.37358,6.17789 15.39814,12.01129 1.67883,3.23793 2.10298,4.92233 2.09094,8.30366 -0.0191,5.36607 -1.45301,8.69405 -5.489,12.73942 -3.78581,3.79462 -6.90498,5.09947 -12.18993,5.09947 -4.78327,0 -7.88949,-1.39244 -11.22396,-5.03144 -2.10736,-2.2998 -2.69389,-3.8661 -2.69389,-7.19381 0,-3.62808 0.42329,-4.73837 2.68009,-7.02982 2.21808,-2.25214 3.15462,-2.63907 6.53903,-2.70157 2.56026,-0.0473 3.41571,0.33817 7.20436,3.24613 1.58046,1.21308 2.98494,2.20559 3.12108,2.20559 0.13613,0 0.48694,-0.36544 0.77958,-0.8121 0.79065,-1.20676 0.70386,-5.15667 -0.15561,-7.082 -0.78736,-1.76378 -3.28225,-4.24953 -5.47996,-5.45988 -1.55799,-0.85803 -1.78954,-0.89812 -4.93567,-0.85459 -7.64032,0.10571 -13.27619,3.00197 -20.72435,10.6502 -9.45864,9.7127 -16.32559,20.93263 -25.45728,41.59471 -1.623,3.67235 -3.00315,6.67699 -3.067,6.67699 -0.0638,0 -0.11491,-0.43888 -0.11347,-0.97529 z"
     id="path4224"
     inkscape:connector-curvature="0" />
  <path
     style="fill:#ffffff;fill-opacity:0;fill-rule:evenodd"
     d="m 384.22957,185.40321 c 0.004,-1.36527 1.61541,-9.21199 2.8613,-13.93004 3.0757,-11.64727 8.46864,-23.36 14.56265,-31.62809 3.01834,-4.09514 10.65065,-11.49592 14.4694,-14.03045 8.24427,-5.47177 15.45953,-7.38882 21.82355,-5.79838 6.55323,1.63773 12.37358,6.17789 15.39814,12.01129 1.67883,3.23793 2.10298,4.92233 2.09094,8.30366 -0.0191,5.36607 -1.45301,8.69405 -5.489,12.73942 -3.78581,3.79462 -6.90498,5.09947 -12.18993,5.09947 -4.78327,0 -7.88949,-1.39244 -11.22396,-5.03144 -2.10736,-2.2998 -2.69389,-3.8661 -2.69389,-7.19381 0,-3.62808 0.42329,-4.73837 2.68009,-7.02982 2.21808,-2.25214 3.15462,-2.63907 6.53903,-2.70157 2.56026,-0.0473 3.41571,0.33817 7.20436,3.24613 1.58046,1.21308 2.98494,2.20559 3.12108,2.20559 0.13613,0 0.48694,-0.36544 0.77958,-0.8121 0.79065,-1.20676 0.70386,-5.15667 -0.15561,-7.082 -0.78736,-1.76378 -3.28225,-4.24953 -5.47996,-5.45988 -1.55799,-0.85803 -1.78954,-0.89812 -4.93567,-0.85459 -7.64032,0.10571 -13.27619,3.00197 -20.72435,10.6502 -9.45864,9.7127 -16.32559,20.93263 -25.45728,41.59471 -1.623,3.67235 -3.00315,6.67699 -3.067,6.67699 -0.0638,0 -0.11491,-0.43888 -0.11347,-0.97529 z"
     id="path4226"
     inkscape:connector-curvature="0" />
  <path
     style="fill:#43ffff;fill-opacity:0;fill-rule:evenodd"
     d="m 384.22957,185.40321 c 0.004,-1.36527 1.61541,-9.21199 2.8613,-13.93004 3.0757,-11.64727 8.46864,-23.36 14.56265,-31.62809 3.01834,-4.09514 10.65065,-11.49592 14.4694,-14.03045 8.24427,-5.47177 15.45953,-7.38882 21.82355,-5.79838 6.55323,1.63773 12.37358,6.17789 15.39814,12.01129 1.67883,3.23793 2.10298,4.92233 2.09094,8.30366 -0.0191,5.36607 -1.45301,8.69405 -5.489,12.73942 -3.78581,3.79462 -6.90498,5.09947 -12.18993,5.09947 -4.78327,0 -7.88949,-1.39244 -11.22396,-5.03144 -2.10736,-2.2998 -2.69389,-3.8661 -2.69389,-7.19381 0,-3.62808 0.42329,-4.73837 2.68009,-7.02982 2.21808,-2.25214 3.15462,-2.63907 6.53903,-2.70157 2.56026,-0.0473 3.41571,0.33817 7.20436,3.24613 1.58046,1.21308 2.98494,2.20559 3.12108,2.20559 0.13613,0 0.48694,-0.36544 0.77958,-0.8121 0.79065,-1.20676 0.70386,-5.15667 -0.15561,-7.082 -0.78736,-1.76378 -3.28225,-4.24953 -5.47996,-5.45988 -1.55799,-0.85803 -1.78954,-0.89812 -4.93567,-0.85459 -7.64032,0.10571 -13.27619,3.00197 -20.72435,10.6502 -9.45864,9.7127 -16.32559,20.93263 -25.45728,41.59471 -1.623,3.67235 -3.00315,6.67699 -3.067,6.67699 -0.0638,0 -0.11491,-0.43888 -0.11347,-0.97529 z"
     id="path4228"
     inkscape:connector-curvature="0" />
  <path
     style="fill:#43ffff;fill-opacity:0;fill-rule:evenodd"
     d="m 384.22957,185.40321 c 0.004,-1.36527 1.61541,-9.21199 2.8613,-13.93004 3.0757,-11.64727 8.46864,-23.36 14.56265,-31.62809 3.01834,-4.09514 10.65065,-11.49592 14.4694,-14.03045 8.24427,-5.47177 15.45953,-7.38882 21.82355,-5.79838 6.55323,1.63773 12.37358,6.17789 15.39814,12.01129 1.67883,3.23793 2.10298,4.92233 2.09094,8.30366 -0.0191,5.36607 -1.45301,8.69405 -5.489,12.73942 -3.78581,3.79462 -6.90498,5.09947 -12.18993,5.09947 -4.78327,0 -7.88949,-1.39244 -11.22396,-5.03144 -2.10736,-2.2998 -2.69389,-3.8661 -2.69389,-7.19381 0,-3.62808 0.42329,-4.73837 2.68009,-7.02982 2.21808,-2.25214 3.15462,-2.63907 6.53903,-2.70157 2.56026,-0.0473 3.41571,0.33817 7.20436,3.24613 1.58046,1.21308 2.98494,2.20559 3.12108,2.20559 0.13613,0 0.48694,-0.36544 0.77958,-0.8121 0.79065,-1.20676 0.70386,-5.15667 -0.15561,-7.082 -0.78736,-1.76378 -3.28225,-4.24953 -5.47996,-5.45988 -1.55799,-0.85803 -1.78954,-0.89812 -4.93567,-0.85459 -7.64032,0.10571 -13.27619,3.00197 -20.72435,10.6502 -9.45864,9.7127 -16.32559,20.93263 -25.45728,41.59471 -1.623,3.67235 -3.00315,6.67699 -3.067,6.67699 -0.0638,0 -0.11491,-0.43888 -0.11347,-0.97529 z"
     id="path4230"
     inkscape:connector-curvature="0" />
  <path
     style="fill:#43ffff;fill-opacity:0;fill-rule:evenodd"
     d="m 384.22957,185.40321 c 0.004,-1.36527 1.61541,-9.21199 2.8613,-13.93004 3.0757,-11.64727 8.46864,-23.36 14.56265,-31.62809 3.01834,-4.09514 10.65065,-11.49592 14.4694,-14.03045 8.24427,-5.47177 15.45953,-7.38882 21.82355,-5.79838 6.55323,1.63773 12.37358,6.17789 15.39814,12.01129 1.67883,3.23793 2.10298,4.92233 2.09094,8.30366 -0.0191,5.36607 -1.45301,8.69405 -5.489,12.73942 -3.78581,3.79462 -6.90498,5.09947 -12.18993,5.09947 -4.78327,0 -7.88949,-1.39244 -11.22396,-5.03144 -2.10736,-2.2998 -2.69389,-3.8661 -2.69389,-7.19381 0,-3.62808 0.42329,-4.73837 2.68009,-7.02982 2.21808,-2.25214 3.15462,-2.63907 6.53903,-2.70157 2.56026,-0.0473 3.41571,0.33817 7.20436,3.24613 1.58046,1.21308 2.98494,2.20559 3.12108,2.20559 0.13613,0 0.48694,-0.36544 0.77958,-0.8121 0.79065,-1.20676 0.70386,-5.15667 -0.15561,-7.082 -0.78736,-1.76378 -3.28225,-4.24953 -5.47996,-5.45988 -1.55799,-0.85803 -1.78954,-0.89812 -4.93567,-0.85459 -7.64032,0.10571 -13.27619,3.00197 -20.72435,10.6502 -9.45864,9.7127 -16.32559,20.93263 -25.45728,41.59471 -1.623,3.67235 -3.00315,6.67699 -3.067,6.67699 -0.0638,0 -0.11491,-0.43888 -0.11347,-0.97529 z"
     id="path4232"
     inkscape:connector-curvature="0" />
  <path
     style="fill:#43ffff;fill-opacity:0;fill-rule:evenodd"
     d="m 384.22957,185.40321 c 0.004,-1.36527 1.61541,-9.21199 2.8613,-13.93004 3.0757,-11.64727 8.46864,-23.36 14.56265,-31.62809 3.01834,-4.09514 10.65065,-11.49592 14.4694,-14.03045 8.24427,-5.47177 15.45953,-7.38882 21.82355,-5.79838 6.55323,1.63773 12.37358,6.17789 15.39814,12.01129 1.67883,3.23793 2.10298,4.92233 2.09094,8.30366 -0.0191,5.36607 -1.45301,8.69405 -5.489,12.73942 -3.78581,3.79462 -6.90498,5.09947 -12.18993,5.09947 -4.78327,0 -7.88949,-1.39244 -11.22396,-5.03144 -2.10736,-2.2998 -2.69389,-3.8661 -2.69389,-7.19381 0,-3.62808 0.42329,-4.73837 2.68009,-7.02982 2.21808,-2.25214 3.15462,-2.63907 6.53903,-2.70157 2.56026,-0.0473 3.41571,0.33817 7.20436,3.24613 1.58046,1.21308 2.98494,2.20559 3.12108,2.20559 0.13613,0 0.48694,-0.36544 0.77958,-0.8121 0.79065,-1.20676 0.70386,-5.15667 -0.15561,-7.082 -0.78736,-1.76378 -3.28225,-4.24953 -5.47996,-5.45988 -1.55799,-0.85803 -1.78954,-0.89812 -4.93567,-0.85459 -7.64032,0.10571 -13.27619,3.00197 -20.72435,10.6502 -9.45864,9.7127 -16.32559,20.93263 -25.45728,41.59471 -1.623,3.67235 -3.00315,6.67699 -3.067,6.67699 -0.0638,0 -0.11491,-0.43888 -0.11347,-0.97529 z"
     id="path4234"
     inkscape:connector-curvature="0" />
  <path
     style="fill:#43ffff;fill-opacity:0;fill-rule:evenodd"
     d="m 384.22957,185.40321 c 0.004,-1.36527 1.61541,-9.21199 2.8613,-13.93004 3.0757,-11.64727 8.46864,-23.36 14.56265,-31.62809 3.01834,-4.09514 10.65065,-11.49592 14.4694,-14.03045 8.24427,-5.47177 15.45953,-7.38882 21.82355,-5.79838 6.55323,1.63773 12.37358,6.17789 15.39814,12.01129 1.67883,3.23793 2.10298,4.92233 2.09094,8.30366 -0.0191,5.36607 -1.45301,8.69405 -5.489,12.73942 -3.78581,3.79462 -6.90498,5.09947 -12.18993,5.09947 -4.78327,0 -7.88949,-1.39244 -11.22396,-5.03144 -2.10736,-2.2998 -2.69389,-3.8661 -2.69389,-7.19381 0,-3.62808 0.42329,-4.73837 2.68009,-7.02982 2.21808,-2.25214 3.15462,-2.63907 6.53903,-2.70157 2.56026,-0.0473 3.41571,0.33817 7.20436,3.24613 1.58046,1.21308 2.98494,2.20559 3.12108,2.20559 0.13613,0 0.48694,-0.36544 0.77958,-0.8121 0.79065,-1.20676 0.70386,-5.15667 -0.15561,-7.082 -0.78736,-1.76378 -3.28225,-4.24953 -5.47996,-5.45988 -1.55799,-0.85803 -1.78954,-0.89812 -4.93567,-0.85459 -7.64032,0.10571 -13.27619,3.00197 -20.72435,10.6502 -9.45864,9.7127 -16.32559,20.93263 -25.45728,41.59471 -1.623,3.67235 -3.00315,6.67699 -3.067,6.67699 -0.0638,0 -0.11491,-0.43888 -0.11347,-0.97529 z"
     id="path4236"
     inkscape:connector-curvature="0" />
  <path
     id="path4238"
     style="fill:#ed1c24;fill-opacity:1;fill-rule:evenodd"
     d="m 447.85001,147.41896 c 0.55138,-5.05029 4.00862,-18.25763 6.26986,-23.95209 4.90494,-12.35207 10.86132,-21.45068 19.11098,-29.192777 11.68418,-10.965295 22.7635,-14.025643 33.30503,-9.199569 4.22288,1.933297 8.92461,6.672692 10.91818,11.005641 4.00048,8.694885 0.60545,19.247095 -7.63558,23.732425 -10.10207,5.49823 -22.89941,-0.32794 -22.89941,-10.42528 0,-5.57695 4.25079,-10.171941 9.40999,-10.171941 2.73901,0 5.03582,1.183241 7.29793,3.759641 2.41084,2.7458 2.93922,2.99316 4.04067,1.89171 1.20321,-1.20321 1.24788,-5.726792 0.0789,-7.987409 -1.21792,-2.355222 -4.61031,-5.187152 -7.26208,-6.062312 -4.76266,-1.571822 -14.18874,1.47852 -20.44966,6.617649 -9.41897,7.731352 -21.59099,26.741182 -29.51282,46.092102 l -3.0642,7.48503 0.39225,-3.59282 z" />
  <path
     style="fill:#ed1c24;fill-opacity:1;fill-rule:evenodd;stroke:#ed1c24;stroke-width:0.16852522;stroke-opacity:0"
     d="m 430.48642,150.61237 c -3.92556,-11.45588 -10.44843,-24.85519 -17.08464,-35.09538 -6.60053,-10.18512 -14.15039,-18.25734 -20.14262,-21.536254 -4.12481,-2.257076 -9.16665,-3.559337 -13.00489,-3.359042 -2.78073,0.14511 -4.84729,1.13544 -7.07879,3.392282 -2.49026,2.518538 -3.67701,5.734952 -3.11701,8.447914 0.37005,1.79271 1.14854,2.94785 1.9802,2.93823 0.61676,-0.007 0.78211,-0.15455 2.20861,-1.96918 1.44062,-1.83258 2.58947,-2.87973 3.82096,-3.482731 3.95858,-1.938329 8.59932,-0.871742 11.49231,2.641291 2.72361,3.30736 3.16047,7.90503 1.13971,11.99475 -3.06195,6.19689 -11.78365,9.32209 -18.95604,6.79242 -2.9418,-1.03756 -5.206,-2.42822 -7.17612,-4.40753 -3.26346,-3.27869 -5.2031,-7.69515 -5.41163,-12.32203 -0.2475,-5.491602 1.92878,-10.672458 6.34215,-15.098123 4.56364,-4.576351 10.08833,-6.945204 16.18812,-6.94107 2.83945,0.0019 4.93613,0.35326 7.89194,1.322432 5.63406,1.847334 11.26599,5.502611 16.85048,10.936431 12.83896,12.49257 21.1657,30.54975 24.63751,53.42837 0.51091,3.36683 0.76841,5.64559 0.63794,5.64559 -0.0427,0 -0.5909,-1.49777 -1.21819,-3.32837 z"
     id="path4324"
     inkscape:connector-curvature="0" />
  <path
     style="fill:#ed1c24;fill-opacity:1;fill-rule:evenodd;stroke:#ed1c24;stroke-width:0.16852522;stroke-opacity:0"
     d="m 447.75441,149.4704 c -0.0349,-3.07465 2.60418,-14.44004 5.16441,-22.24091 2.98238,-9.08718 8.04271,-18.62518 13.45621,-25.36304 6.97739,-8.684346 15.47371,-15.283395 22.66228,-17.601661 2.71774,-0.876457 4.07646,-1.118963 6.84737,-1.222128 3.65517,-0.136089 6.85319,0.466328 10.12038,1.906392 4.37894,1.930087 8.99613,6.439737 11.1881,10.927517 2.84026,5.81507 2.31455,12.84789 -1.36892,18.31288 -2.27983,3.38248 -6.0711,6.05586 -10.04391,7.08237 -8.27648,2.13852 -16.98637,-2.35579 -18.51061,-9.55148 -1.33696,-6.31157 3.12108,-12.369715 9.10998,-12.379771 2.67779,-0.0045 4.32435,0.863851 7.23524,3.815631 1.40427,1.424 2.36606,2.26574 2.67848,2.34415 1.60535,0.40292 2.67258,-2.29208 2.28057,-5.758927 -0.27846,-2.462686 -0.89285,-3.630383 -2.97592,-5.655959 -1.56264,-1.519506 -3.39693,-2.742824 -4.91767,-3.279678 -0.91445,-0.322819 -1.45561,-0.392572 -3.06836,-0.3955 -2.44798,-0.0044 -4.37384,0.325709 -7.00954,1.201651 -3.63487,1.208009 -7.30998,3.167162 -10.28721,5.483978 -7.1532,5.566465 -16.68898,19.039575 -24.46568,34.567545 -2.65918,5.30966 -3.57292,7.36333 -7.32504,16.46316 -0.56594,1.37254 -0.76587,1.72139 -0.77016,1.34378 z"
     id="path4328"
     inkscape:connector-curvature="0" />
  <path
     style="fill:#ed1c24;fill-opacity:1;fill-rule:evenodd;stroke:#ed1c24;stroke-width:0.16852522;stroke-opacity:0"
     d="m 447.75247,149.4704 c -0.0237,-3.14084 2.57054,-14.31257 5.16457,-22.24091 2.37968,-7.27322 6.56874,-15.72986 10.78994,-21.78212 7.09565,-10.173594 17.07778,-18.521187 25.33033,-21.182581 2.71774,-0.876457 4.07646,-1.118963 6.84737,-1.222128 3.65517,-0.136089 6.85319,0.466328 10.12038,1.906392 5.64156,2.486607 10.92053,8.543834 12.47069,14.309211 0.40773,1.516436 0.45172,1.962206 0.44864,4.546226 -0.003,2.58639 -0.048,3.02877 -0.46194,4.55018 -2.04029,7.49891 -7.92922,12.6121 -15.41784,13.38686 -7.33906,0.75929 -14.4479,-3.75669 -15.77489,-10.02119 -1.33696,-6.31157 3.12108,-12.369715 9.10998,-12.379771 2.62291,-0.0044 4.34626,0.880321 7.03487,3.611551 2.80912,2.85365 3.17032,3.04128 4.12958,2.1452 0.73798,-0.68938 1.09415,-2.06979 1.07257,-4.15692 -0.0302,-2.921756 -0.6031,-4.357575 -2.54518,-6.379029 -1.47815,-1.53856 -2.83342,-2.542516 -4.55139,-3.371574 -1.37964,-0.665787 -1.47966,-0.68747 -3.47797,-0.753997 -2.55238,-0.08497 -4.51433,0.225957 -7.42188,1.176218 -2.45796,0.803327 -6.10848,2.566122 -8.15548,3.938192 -5.15505,3.455353 -10.52352,9.503 -16.60242,18.70284 -6.3143,9.55609 -10.93702,18.45253 -16.2877,31.34569 -1.19254,2.87358 -1.81972,4.20613 -1.82223,3.87166 z"
     id="path4330"
     inkscape:connector-curvature="0" />
  <path
     style="fill:#ed1c24;fill-opacity:1;fill-rule:evenodd;stroke:#ed1c24;stroke-width:0.16852522;stroke-opacity:0"
     d="m 447.83922,148.54793 c 0.29238,-3.94714 2.62928,-13.81743 4.97253,-21.00225 2.46064,-7.54476 6.59909,-15.93859 10.89523,-22.09831 7.10041,-10.180416 17.07224,-18.519402 25.33033,-21.182581 2.71774,-0.876457 4.07646,-1.118963 6.84737,-1.222128 1.98062,-0.07374 2.94014,-0.03006 4.29739,0.195652 5.02863,0.836252 9.20986,3.040379 12.73389,6.712645 2.85006,2.969949 4.67909,6.031819 5.55979,9.307306 0.40773,1.516436 0.45172,1.962206 0.44864,4.546226 -0.003,2.58639 -0.048,3.02877 -0.46194,4.55018 -0.86688,3.18613 -2.40718,5.92209 -4.62382,8.21302 -6.02666,6.22866 -15.78887,7.02344 -22.33853,1.81867 -5.31761,-4.22571 -5.9862,-11.8052 -1.44218,-16.34923 1.80921,-1.80921 3.86895,-2.688055 6.31023,-2.692441 2.71374,-0.0049 4.28055,0.817771 7.2795,3.822041 1.22305,1.22523 2.4128,2.27515 2.64388,2.33315 0.62009,0.15563 1.39787,-0.38334 1.83329,-1.2704 0.30855,-0.62861 0.38448,-1.11616 0.43359,-2.78435 0.096,-3.26077 -0.41643,-4.681034 -2.47704,-6.865389 -1.85426,-1.965618 -4.08161,-3.428107 -6.00566,-3.943358 -1.28103,-0.343053 -4.20956,-0.287899 -6.20896,0.116934 -3.2935,0.66686 -7.38927,2.305879 -10.38737,4.156747 -4.20286,2.594636 -8.62675,6.975596 -13.24148,13.112996 -7.32966,9.74816 -14.23687,22.15227 -19.85554,35.65701 -0.78612,1.88947 -1.7038,4.08001 -2.03928,4.86786 l -0.60996,1.43247 0.1061,-1.43247 z"
     id="path4332"
     inkscape:connector-curvature="0" />
  <path
     style="fill:#ed1c24;fill-opacity:1;fill-rule:evenodd;stroke:#ed1c24;stroke-width:0.16852522;stroke-opacity:0"
     d="m 447.8377,148.56534 c 0.33527,-4.43676 2.99626,-15.37175 5.52008,-22.68405 1.61802,-4.6879 4.9995,-11.90104 7.56471,-16.13653 5.37006,-8.86663 12.33496,-16.351195 19.94134,-21.429215 3.37074,-2.250303 7.67708,-4.134223 11.20693,-4.902755 2.00545,-0.436634 6.0134,-0.52321 8.11131,-0.175213 3.70794,0.615064 6.97521,1.975532 9.73012,4.051554 4.21787,3.178466 7.3933,7.616711 8.56356,11.969133 0.40787,1.516966 0.45168,1.961306 0.44815,4.546226 -0.003,2.54682 -0.0527,3.04788 -0.44354,4.51266 -1.8176,6.81224 -6.91804,11.74111 -13.6626,13.20299 -1.96544,0.42601 -5.22072,0.34828 -7.26993,-0.17359 -8.46177,-2.15495 -12.75023,-9.83928 -9.34571,-16.74623 1.26054,-2.55733 3.74157,-4.53958 6.39374,-5.108373 0.52221,-0.111995 1.55696,-0.159558 2.41137,-0.110841 1.33435,0.07608 1.65475,0.163677 2.95463,0.807794 1.23455,0.61174 1.72887,0.99579 3.22562,2.50607 2.1789,2.1986 2.97928,2.87903 3.38653,2.87903 0.17338,0 0.58249,-0.23464 0.90913,-0.52144 0.79509,-0.69809 1.10309,-1.78217 1.10309,-3.88251 0,-2.965968 -0.55318,-4.484283 -2.33497,-6.40878 -1.87216,-2.022111 -4.13067,-3.527287 -6.16897,-4.111296 -1.57979,-0.45264 -4.96483,-0.265734 -7.57435,0.41822 -3.43555,0.900455 -7.2128,2.603672 -10.17092,4.586212 -5.50771,3.691279 -12.11298,11.480234 -18.70198,22.053414 -5.05734,8.11536 -9.19086,16.28284 -13.81695,27.30108 l -2.08732,4.9715 0.10693,-1.41506 z"
     id="path4334"
     inkscape:connector-curvature="0" />
</svg>
